<svg width="139" height="91" viewBox="0 0 139 91" fill="none" xmlns="http://www.w3.org/2000/svg">
<path d="M19.0944 90.794C44.17 90.794 64.4913 70.4728 64.4913 45.3971C64.4913 20.3214 44.17 0.00012207 19.0944 0.00012207V90.794Z" fill="url(#paint0_radial_61_5577)"/>
<path d="M0 26.7939H19.0943V20.2758L0 26.7939Z" fill="url(#paint1_linear_61_5577)"/>
<path d="M138.486 43.511L124.185 27.8674C123.533 27.1773 122.651 26.7555 121.692 26.7555H14.1099H0V62.7587H121.692C122.651 62.7587 123.533 62.3752 124.185 61.6467L138.486 46.0032C139.138 45.313 139.138 44.2395 138.486 43.511Z" fill="url(#paint2_linear_61_5577)"/>
<g filter="url(#filter0_d_61_5577)">
<path d="M21.072 40.0601L23.536 43.7281L25.986 40.0601H28.086L24.642 45.1001L27.974 50.0001H25.874L23.536 46.4721L21.184 50.0001H19.07L22.402 45.1001L18.958 40.0601H21.072ZM29.1568 50.0001V40.0601H31.0748V47.2841L35.8908 40.0601H37.6828V50.0001H35.7648V42.8601L31.0048 50.0001H29.1568ZM47.2532 41.7541H44.0752V50.0001H42.1572V41.7541H38.9792V40.0601H47.2532V41.7541ZM51.4683 50.0001V40.0601H59.5183V50.0001H57.6003V41.7541H53.3863V50.0001H51.4683ZM61.6122 50.0001V40.0601H65.8262C66.2835 40.0601 66.7035 40.1535 67.0862 40.3401C67.4688 40.5268 67.8002 40.7788 68.0802 41.0961C68.3695 41.4135 68.5935 41.7681 68.7522 42.1601C68.9108 42.5521 68.9902 42.9535 68.9902 43.3641C68.9902 43.9241 68.8595 44.4561 68.5982 44.9601C68.3368 45.4641 67.9775 45.8748 67.5202 46.1921C67.0628 46.5095 66.5215 46.6681 65.8962 46.6681H63.5442V50.0001H61.6122ZM63.5442 44.9741H65.7842C66.0175 44.9741 66.2275 44.9088 66.4142 44.7781C66.6008 44.6475 66.7502 44.4608 66.8622 44.2181C66.9742 43.9661 67.0302 43.6815 67.0302 43.3641C67.0302 43.0188 66.9648 42.7248 66.8342 42.4821C66.7128 42.2395 66.5495 42.0575 66.3442 41.9361C66.1482 41.8148 65.9335 41.7541 65.7002 41.7541H63.5442V44.9741ZM74.5768 50.0701C73.8488 50.0701 73.1862 49.9301 72.5888 49.6501C72.0008 49.3701 71.4922 48.9921 71.0628 48.5161C70.6428 48.0308 70.3162 47.4895 70.0828 46.8921C69.8495 46.2855 69.7328 45.6648 69.7328 45.0301C69.7328 44.3675 69.8542 43.7375 70.0968 43.1401C70.3488 42.5335 70.6895 41.9968 71.1188 41.5301C71.5575 41.0541 72.0708 40.6808 72.6588 40.4101C73.2562 40.1301 73.9095 39.9901 74.6188 39.9901C75.3375 39.9901 75.9908 40.1348 76.5788 40.4241C77.1762 40.7135 77.6848 41.1008 78.1048 41.5861C78.5248 42.0715 78.8515 42.6128 79.0848 43.2101C79.3182 43.8075 79.4348 44.4235 79.4348 45.0581C79.4348 45.7115 79.3135 46.3415 79.0708 46.9481C78.8282 47.5455 78.4875 48.0821 78.0488 48.5581C77.6195 49.0248 77.1062 49.3935 76.5088 49.6641C75.9208 49.9348 75.2768 50.0701 74.5768 50.0701ZM71.6928 45.0301C71.6928 45.4595 71.7582 45.8748 71.8888 46.2761C72.0195 46.6775 72.2062 47.0368 72.4488 47.3541C72.7008 47.6621 73.0042 47.9095 73.3588 48.0961C73.7228 48.2735 74.1335 48.3621 74.5908 48.3621C75.0575 48.3621 75.4728 48.2688 75.8368 48.0821C76.2008 47.8861 76.5042 47.6295 76.7468 47.3121C76.9895 46.9855 77.1715 46.6261 77.2928 46.2341C77.4235 45.8328 77.4888 45.4315 77.4888 45.0301C77.4888 44.6008 77.4188 44.1901 77.2788 43.7981C77.1482 43.3968 76.9568 43.0421 76.7048 42.7341C76.4622 42.4168 76.1588 42.1695 75.7948 41.9921C75.4402 41.8055 75.0388 41.7121 74.5908 41.7121C74.1148 41.7121 73.6948 41.8101 73.3308 42.0061C72.9762 42.1928 72.6775 42.4448 72.4348 42.7621C72.1922 43.0795 72.0055 43.4341 71.8748 43.8261C71.7535 44.2181 71.6928 44.6195 71.6928 45.0301ZM80.3009 51.9041V48.3061H80.8329C81.0849 48.3061 81.3042 48.2081 81.4909 48.0121C81.6775 47.8161 81.8362 47.5035 81.9669 47.0741C82.0975 46.6448 82.2002 46.0895 82.2749 45.4081C82.3589 44.7175 82.4149 43.8821 82.4429 42.9021L82.5269 40.0601H89.1489V48.3061H90.4649V51.9041H88.7709V50.0001H81.9949V51.9041H80.3009ZM83.1429 48.3061H87.2309V41.7541H84.2769L84.2489 43.1541C84.2209 44.1248 84.1649 44.9508 84.0809 45.6321C84.0062 46.3135 83.8942 46.8735 83.7449 47.3121C83.6049 47.7508 83.4042 48.0821 83.1429 48.3061ZM94.6657 40.0601H96.6257L100.28 50.0001H98.2917L97.3677 47.5221H93.8957L92.9857 50.0001H90.9977L94.6657 40.0601ZM97.0177 46.1641L95.6457 42.0621L94.2177 46.1641H97.0177ZM100.614 50.0001L104.45 44.8481L100.894 40.0601H103.134L106.032 44.0641H106.872V40.0601H108.79V44.0641H109.63L112.528 40.0601H114.768L111.212 44.8481L115.048 50.0001H112.836L109.658 45.8141H108.79V50.0001H106.872V45.8141H105.99L102.826 50.0001H100.614Z" fill="white"/>
</g>
<path d="M2.26221 60.4966V29.0562H121.654C121.961 29.0562 122.229 29.1712 122.459 29.4012L136.492 44.7764L122.459 60.1515C122.267 60.3816 121.961 60.4966 121.654 60.4966H2.26221Z" stroke="white" stroke-width="0.5" stroke-miterlimit="10"/>
<defs>
<filter id="filter0_d_61_5577" x="17.958" y="39.9901" width="98.09" height="13.9141" filterUnits="userSpaceOnUse" color-interpolation-filters="sRGB">
<feFlood flood-opacity="0" result="BackgroundImageFix"/>
<feColorMatrix in="SourceAlpha" type="matrix" values="0 0 0 0 0 0 0 0 0 0 0 0 0 0 0 0 0 0 127 0" result="hardAlpha"/>
<feOffset dy="1"/>
<feGaussianBlur stdDeviation="0.5"/>
<feComposite in2="hardAlpha" operator="out"/>
<feColorMatrix type="matrix" values="0 0 0 0 0 0 0 0 0 0 0 0 0 0 0 0 0 0 0.4 0"/>
<feBlend mode="normal" in2="BackgroundImageFix" result="effect1_dropShadow_61_5577"/>
<feBlend mode="normal" in="SourceGraphic" in2="effect1_dropShadow_61_5577" result="shape"/>
</filter>
<radialGradient id="paint0_radial_61_5577" cx="0" cy="0" r="1" gradientUnits="userSpaceOnUse" gradientTransform="translate(19.0844 46.7723) rotate(-90) scale(52.4999)">
<stop offset="0.00157077"/>
<stop offset="0.8178" stop-color="#272727" stop-opacity="0"/>
</radialGradient>
<linearGradient id="paint1_linear_61_5577" x1="-0.980137" y1="25.7287" x2="28.0702" y2="22.5451" gradientUnits="userSpaceOnUse">
<stop stop-color="#550025"/>
<stop offset="0.9984" stop-color="#F700A5"/>
</linearGradient>
<linearGradient id="paint2_linear_61_5577" x1="131.5" y1="27" x2="-4.49999" y2="68.5001" gradientUnits="userSpaceOnUse">
<stop stop-color="#F4BC1D"/>
<stop offset="0.9984" stop-color="#FF00D4"/>
</linearGradient>
</defs>
</svg>
