<svg width="20" height="20" viewBox="0 0 20 20" fill="none" xmlns="http://www.w3.org/2000/svg">
<path fill-rule="evenodd" clip-rule="evenodd" d="M5.38219 4.88588H4.08806C3.19381 4.88588 2.45153 5.57703 2.38772 6.46933L1.5529 18.1588C1.5193 18.6308 1.68294 19.0954 2.00538 19.4417C2.3283 19.788 2.77981 19.9848 3.25324 19.9848H16.7468C17.2202 19.9848 17.6717 19.788 17.9947 19.4417C18.3171 19.0954 18.4807 18.6308 18.4471 18.1588L17.6123 6.46933C17.5485 5.57703 16.8062 4.88588 15.912 4.88588H14.6271V4.64235C14.6271 2.08674 12.5556 0.0152588 10 0.0152588C7.53792 0.0152588 5.26236 1.97617 5.37293 4.64235C5.37634 4.7232 5.37926 4.80454 5.38219 4.88588ZM14.6271 6.34707V10C14.6271 10.4033 14.2998 10.7306 13.8965 10.7306C13.4932 10.7306 13.1659 10.4033 13.1659 10V6.34707H6.83411V10C6.83411 10.4033 6.50681 10.7306 6.10352 10.7306C5.70023 10.7306 5.37293 10.4033 5.37293 10C5.37293 10 5.43625 8.29288 5.4153 6.34707H4.08806C3.96045 6.34707 3.85427 6.44594 3.84551 6.57306L3.01018 18.2626C3.00531 18.3303 3.0287 18.3965 3.07497 18.4462C3.12124 18.4954 3.18553 18.5236 3.25324 18.5236H16.7468C16.8145 18.5236 16.8788 18.4954 16.9251 18.4462C16.9713 18.3965 16.9947 18.3303 16.9899 18.2626L16.1545 6.57306C16.1458 6.44594 16.0396 6.34707 15.912 6.34707H14.6271ZM13.1659 4.88588V4.64235C13.1659 2.8938 11.7486 1.47645 10 1.47645C8.25147 1.47645 6.83411 2.8938 6.83411 4.64235V4.88588H13.1659Z" fill="#272727"/>
</svg>
