<svg width="22" height="22" viewBox="0 0 22 22" fill="none" xmlns="http://www.w3.org/2000/svg">
<mask id="mask0_143_312" style="mask-type:luminance" maskUnits="userSpaceOnUse" x="0" y="0" width="22" height="22">
<path d="M0 1.90735e-06H22V22H0V1.90735e-06Z" fill="white"/>
</mask>
<g mask="url(#mask0_143_312)">
<path d="M18.2864 19.8473L17.9604 18.6305C18.6909 13.5435 18.6909 8.45647 17.9604 3.36949L18.2864 2.15265L18.5088 1.32263C18.6161 0.922416 18.2498 0.556193 17.8496 0.663443L17.0196 0.885849L15.7967 1.21353C12.599 0.456291 9.40137 0.456291 6.20372 1.21353L4.98078 0.885849L4.15071 0.663443C3.75054 0.556193 3.38432 0.922416 3.49157 1.32263L3.71394 2.15265L4.03998 3.36949C3.30943 8.45647 3.30943 13.5435 4.03998 18.6305L3.71394 19.8473L3.49157 20.6773C3.38432 21.0776 3.75054 21.4438 4.15071 21.3366L4.98078 21.1141L6.20372 20.7864C9.40137 21.5437 12.599 21.5437 15.7967 20.7864L17.0196 21.1141L17.8496 21.3366C18.2498 21.4438 18.6161 21.0776 18.5088 20.6773L18.2864 19.8473Z" stroke="#A5A6A6" stroke-width="1.2" stroke-miterlimit="10" stroke-linecap="round" stroke-linejoin="round"/>
<path d="M11 14.5323V11.0994" stroke="#A5A6A6" stroke-width="1.2" stroke-miterlimit="10" stroke-linecap="round" stroke-linejoin="round"/>
<path d="M11 11.0994H12.5874C13.9478 11.0994 15.0507 9.99659 15.0507 8.63616V7.46771H13.4633C12.1028 7.46771 11 8.57054 11 9.93102V11.0994Z" stroke="#A5A6A6" stroke-width="1.2" stroke-miterlimit="10" stroke-linecap="round" stroke-linejoin="round"/>
<path d="M10.9999 11.0994H9.41253C8.05205 11.0994 6.94922 9.99659 6.94922 8.63616V7.46771H8.53661C9.89705 7.46771 10.9999 8.57054 10.9999 9.93102V11.0994Z" stroke="#A5A6A6" stroke-width="1.2" stroke-miterlimit="10" stroke-linecap="round" stroke-linejoin="round"/>
</g>
</svg>
