<svg width="22" height="22" viewBox="0 0 22 22" fill="none" xmlns="http://www.w3.org/2000/svg">
<path d="M21.1884 3.56932C21.1497 3.49874 21.0844 3.44645 21.0071 3.42396C18.4655 2.68561 15.8375 2.22907 13.1961 2.06705C10.5634 1.90559 7.9082 2.03605 5.30419 2.45488C5.13858 2.48153 5.02593 2.63735 5.05254 2.80301C5.07918 2.96862 5.23497 3.08127 5.4007 3.05467C7.96053 2.64295 10.5707 2.5146 13.1589 2.67343C15.6545 2.82646 18.1381 3.24704 20.5455 3.92388L18.8017 9.92554C13.6907 8.4982 8.30917 8.49816 3.19818 9.92558L1.45456 3.92392C2.33628 3.67606 3.23545 3.46063 4.13191 3.28263C4.29645 3.24996 4.40334 3.0901 4.3707 2.92556C4.33807 2.76103 4.17813 2.65413 4.01363 2.68677C3.00077 2.88789 1.98448 3.13591 0.992991 3.424C0.83189 3.47082 0.739257 3.63935 0.786073 3.80045L2.5 10.5C2.53855 10.6328 2.65986 10.7191 2.79152 10.7191C2.8196 10.7191 2.84809 10.7152 2.87641 10.707C3.03755 10.6602 3.13018 10.4917 3.08336 10.3306L3.36775 10.5101C8.36785 9.1148 13.6318 9.1148 18.6319 10.51L18.7169 10.3405C18.6702 10.5016 18.7628 10.6701 18.9239 10.7169C18.9522 10.7251 18.9807 10.729 19.0088 10.729C19.1404 10.729 19.2617 10.6428 19.3003 10.51V10.3868L19.3009 10.3853L21.214 3.80053C21.2365 3.72307 21.2272 3.63991 21.1884 3.56932Z" fill="#A5A6A6" stroke="#A5A6A6" stroke-width="0.8"/>
<path d="M11.3136 9.07723C11.146 9.08074 11.0129 9.21959 11.0164 9.38733L11.1705 20.6708C11.1741 20.8385 11.3129 20.9716 11.4806 20.9681C11.5101 20.9675 11.5384 20.9627 11.5652 20.9543C11.6908 20.9149 11.7808 20.7962 11.7778 20.658L11.6237 9.3745C11.6201 9.20674 11.4813 9.0737 11.3136 9.07723Z" fill="#A5A6A6" stroke="#A5A6A6" stroke-width="0.8"/>
<path d="M10.4554 5.13669C10.4492 4.86686 10.3318 4.614 10.125 4.4247C9.89336 4.21267 9.57076 4.10346 9.24017 4.12515C8.91406 4.14628 8.61191 4.29432 8.41114 4.53123C8.23223 4.74235 8.14834 5.00407 8.17466 5.26627C8.21545 5.69888 8.25663 6.13153 8.29833 6.5659C8.3541 7.11248 8.82194 7.51824 9.3795 7.51824C9.40427 7.51824 9.42927 7.51744 9.45448 7.51581C9.4546 7.51581 9.45472 7.51581 9.4548 7.51581C10.0517 7.47646 10.508 6.99036 10.4935 6.4074C10.4804 5.98317 10.4677 5.55899 10.4554 5.13669ZM9.41477 6.90963C9.1572 6.92633 8.92712 6.74438 8.90279 6.50606C8.86133 6.07381 8.82018 5.64152 8.77924 5.20739C8.76941 5.10881 8.80325 5.00818 8.87463 4.92394C8.96938 4.81209 9.11694 4.74191 9.27964 4.73132C9.2943 4.7304 9.30888 4.72988 9.32338 4.72988C9.47361 4.72988 9.61442 4.78085 9.7148 4.87277C9.79837 4.94922 9.84562 5.04793 9.84806 5.15255C9.86048 5.57709 9.87327 6.00159 9.88625 6.42429C9.8924 6.67439 9.68097 6.8921 9.41477 6.90963Z" fill="#A5A6A6"/>
<path d="M6.78924 7.5336C6.74035 7.2781 6.69162 7.02253 6.643 6.76696C6.61165 6.60219 6.45278 6.49393 6.28777 6.52533C6.12303 6.55669 6.01486 6.71567 6.04614 6.88053C6.07602 7.03755 6.10594 7.19458 6.13594 7.3516C5.81957 7.41659 5.50284 7.48834 5.18931 7.56591C4.98207 6.76692 4.77367 5.95826 4.56879 5.15787C4.52717 4.99542 4.36179 4.89739 4.19918 4.93901C4.03664 4.9806 3.93865 5.14609 3.98028 5.30859C4.21044 6.20748 4.44492 7.11676 4.67724 8.01118C4.6975 8.08924 4.74795 8.15603 4.81749 8.19677C4.86451 8.22433 4.91764 8.23851 4.97124 8.23851C4.99693 8.23851 5.02273 8.23524 5.04798 8.22869C5.54203 8.0997 6.04682 7.98542 6.54825 7.88895C6.71291 7.85727 6.8208 7.69825 6.78924 7.5336Z" fill="#A5A6A6"/>
<path d="M18.4704 5.13044C17.9128 4.96874 17.3425 4.8233 16.7752 4.69815C16.6119 4.6622 16.4502 4.76494 16.4134 4.92816C16.3131 5.37471 16.2123 5.82457 16.1119 6.2746V6.27464C16.0094 6.73469 15.9071 7.19506 15.806 7.65228C15.7886 7.73097 15.8032 7.81338 15.8466 7.88129C15.8899 7.9492 15.9585 7.99713 16.0372 8.01451C16.5323 8.12348 17.0304 8.25039 17.5176 8.39151C17.5459 8.3997 17.5743 8.40358 17.6023 8.40358C17.734 8.40358 17.8554 8.31713 17.8939 8.18427C17.9406 8.02313 17.8478 7.85468 17.6867 7.80799C17.284 7.69131 16.8741 7.58417 16.4644 7.48846C16.5222 7.22762 16.5804 6.96594 16.6387 6.70421C16.8034 6.7426 16.968 6.78215 17.1307 6.82361C17.1559 6.83004 17.1811 6.83308 17.2059 6.83308C17.3415 6.83308 17.465 6.74164 17.5 6.60427C17.5415 6.44169 17.4433 6.27636 17.2807 6.23493C17.1121 6.19195 16.9416 6.15105 16.7709 6.1113C16.8271 5.85984 16.8834 5.60859 16.9395 5.35821C17.3961 5.46458 17.8529 5.58386 18.3012 5.71392C18.4623 5.76054 18.6309 5.66795 18.6776 5.50681C18.7243 5.34567 18.6315 5.17714 18.4704 5.13044Z" fill="#A5A6A6"/>
<path d="M12.9498 5.34067C12.844 4.9963 12.7323 4.64906 12.6176 4.30868C12.564 4.1497 12.3916 4.06418 12.2327 4.11782C12.0738 4.17135 11.9883 4.34363 12.0419 4.50262C12.1548 4.83788 12.2649 5.17989 12.369 5.51907C12.4092 5.64977 12.5294 5.7337 12.6593 5.7337C12.6888 5.7337 12.7189 5.72934 12.7486 5.7202C12.9089 5.67094 12.999 5.50102 12.9498 5.34067Z" fill="#A5A6A6"/>
<path d="M14.691 4.34599C14.5451 4.26322 14.3597 4.31419 14.2768 4.46007C13.9181 5.09153 13.5761 5.73733 13.2557 6.38796C13.2381 6.32449 13.2204 6.26114 13.2026 6.19798C13.1569 6.03656 12.9892 5.94261 12.8276 5.98827C12.6662 6.03393 12.5724 6.20174 12.618 6.36316C12.7092 6.68592 12.7973 7.01371 12.8798 7.33727C12.9115 7.46178 13.0181 7.55282 13.146 7.56468C13.1555 7.56556 13.1648 7.56596 13.1742 7.56596C13.2915 7.56596 13.3995 7.49809 13.4496 7.3902C13.8617 6.50305 14.3177 5.61821 14.8051 4.7601C14.8879 4.61426 14.8368 4.42884 14.691 4.34599Z" fill="#A5A6A6"/>
</svg>
