<svg width="22" height="22" viewBox="0 0 22 22" fill="none" xmlns="http://www.w3.org/2000/svg">
<g clip-path="url(#clip0_143_327)">
<path d="M11.0283 10.666C10.1617 10.1584 9.02687 10.2759 8.28414 11.0181C7.40832 11.8934 7.39187 13.326 8.28414 14.2178L10.5726 16.5057C10.6985 16.6316 10.8634 16.6945 11.0283 16.6945C11.1933 16.6945 11.3581 16.6316 11.484 16.5057L13.7726 14.2178C14.6482 13.3426 14.6647 11.9099 13.7726 11.0181C13.0298 10.2759 11.895 10.1584 11.0283 10.666ZM12.8612 13.3062L11.0283 15.1386L9.19555 13.306C9.19555 13.306 9.19555 13.306 9.19538 13.306C8.8189 12.9297 8.81185 12.3132 9.19538 11.9298C9.57489 11.5505 10.1927 11.55 10.5727 11.9298C10.8243 12.1814 11.2324 12.1814 11.484 11.9298C11.8636 11.5503 12.4815 11.5503 12.8613 11.9298C13.2378 12.3062 13.2449 12.9227 12.8612 13.3062Z" fill="#A5A6A6"/>
<path d="M17.9322 4.14264H15.8154V0.645046C15.8154 0.195384 15.3654 -0.116307 14.9446 0.0416367L3.89874 4.18376C3.65788 4.27389 3.48047 4.50854 3.48047 4.78717V21.3555C3.48047 21.7115 3.769 22 4.125 22H17.9322C18.2882 22 18.5768 21.7115 18.5768 21.3555V4.78717C18.5768 4.43133 18.2882 4.14264 17.9322 4.14264ZM14.5263 4.14264H7.67932L14.5263 1.57508V4.14264ZM17.2877 20.711H4.76953V5.4317H17.2877V20.711Z" fill="#A5A6A6"/>
</g>
<defs>
<clipPath id="clip0_143_327">
<rect width="22" height="22" fill="white"/>
</clipPath>
</defs>
</svg>
