<svg width="22" height="22" viewBox="0 0 22 22" fill="none" xmlns="http://www.w3.org/2000/svg">
<g id="postcard 1" clip-path="url(#clip0_291_2317)">
<path id="Vector" d="M11.0283 10.6661C10.1617 10.1585 9.02687 10.276 8.28414 11.0182C7.40832 11.8935 7.39187 13.3261 8.28414 14.2179L10.5726 16.5058C10.6985 16.6317 10.8634 16.6946 11.0283 16.6946C11.1933 16.6946 11.3581 16.6317 11.484 16.5058L13.7726 14.2179C14.6482 13.3427 14.6647 11.91 13.7726 11.0182C13.0298 10.276 11.895 10.1585 11.0283 10.6661ZM12.8612 13.3063L11.0283 15.1387L9.19555 13.3061C9.19555 13.3061 9.19555 13.3061 9.19538 13.3061C8.8189 12.9298 8.81185 12.3133 9.19538 11.93C9.57489 11.5506 10.1927 11.5501 10.5727 11.93C10.8243 12.1816 11.2324 12.1816 11.484 11.93C11.8636 11.5505 12.4815 11.5505 12.8613 11.93C13.2378 12.3063 13.2449 12.9228 12.8612 13.3063Z" fill="#A5A6A6"/>
<path id="Vector_2" d="M17.9322 4.14257H15.8154V0.644985C15.8154 0.195323 15.3654 -0.116368 14.9446 0.0415756L3.89874 4.1837C3.65788 4.27383 3.48047 4.50848 3.48047 4.78711V21.3554C3.48047 21.7114 3.769 22 4.125 22H17.9322C18.2882 22 18.5768 21.7114 18.5768 21.3554V4.78711C18.5768 4.43127 18.2882 4.14257 17.9322 4.14257ZM14.5263 4.14257H7.67932L14.5263 1.57502V4.14257ZM17.2877 20.7109H4.76953V5.43164H17.2877V20.7109Z" fill="#A5A6A6"/>
</g>
<defs>
<clipPath id="clip0_291_2317">
<rect width="22" height="22" fill="white"/>
</clipPath>
</defs>
</svg>
