<svg width="22" height="22" viewBox="0 0 22 22" fill="none" xmlns="http://www.w3.org/2000/svg">
<g id="vase (1) 1">
<g id="g1890">
<g id="g1892">
<g id="Clip path group">
<mask id="mask0_291_2342" style="mask-type:luminance" maskUnits="userSpaceOnUse" x="0" y="0" width="22" height="22">
<g id="clipPath1898">
<path id="path1896" d="M0 1.90735e-06H22V22H0V1.90735e-06Z" fill="white"/>
</g>
</mask>
<g mask="url(#mask0_291_2342)">
<g id="g1894">
<g id="g1900">
<path id="path1902" d="M5.99772 10.3772C5.93829 10.8086 5.91978 11.2859 5.95518 11.8189C6.23405 16.0162 8.70531 21.6562 8.70531 21.6562H13.2946C13.2946 21.6562 14.0877 19.8461 14.826 17.5135" stroke="#A5A6A6" stroke-width="1.4" stroke-miterlimit="10" stroke-linecap="round" stroke-linejoin="round"/>
</g>
<g id="g1904">
<path id="path1906" d="M15.1962 16.2764C15.6088 14.8071 15.9509 13.2313 16.0448 11.8189C16.3237 7.6216 13.2558 6.88211 13.2558 4.78803C13.2558 2.6939 14.2684 0.343684 14.2684 0.343684H7.73164C7.73164 0.343684 8.74424 2.6939 8.74424 4.78803C8.74424 6.3502 7.03697 7.15853 6.2854 9.2108" stroke="#A5A6A6" stroke-width="1.4" stroke-miterlimit="10" stroke-linecap="round" stroke-linejoin="round"/>
</g>
</g>
</g>
</g>
</g>
</g>
</g>
</svg>
