<svg width="20" height="20" viewBox="0 0 20 20" fill="none" xmlns="http://www.w3.org/2000/svg">
<path fill-rule="evenodd" clip-rule="evenodd" d="M5.38243 4.88584H4.0883C3.19405 4.88584 2.45177 5.57699 2.38797 6.46928L1.55315 18.1588C1.51954 18.6307 1.68319 19.0954 2.00562 19.4417C2.32854 19.788 2.78006 19.9848 3.25348 19.9848H16.747C17.2205 19.9848 17.672 19.788 17.9949 19.4417C18.3173 19.0954 18.481 18.6307 18.4474 18.1588L17.6126 6.46928C17.5488 5.57699 16.8065 4.88584 15.9122 4.88584H14.6274V4.64231C14.6274 2.08669 12.5559 0.0152168 10.0003 0.0152168C7.53816 0.0152168 5.26261 1.97613 5.37317 4.64231C5.37658 4.72316 5.37951 4.8045 5.38243 4.88584ZM14.6274 6.34703V10C14.6274 10.4033 14.3001 10.7306 13.8968 10.7306C13.4935 10.7306 13.1662 10.4033 13.1662 10V6.34703H6.83436V10C6.83436 10.4033 6.50705 10.7306 6.10376 10.7306C5.70048 10.7306 5.37317 10.4033 5.37317 10C5.37317 10 5.43649 8.29284 5.41555 6.34703H4.0883C3.96069 6.34703 3.85452 6.4459 3.84575 6.57302L3.01042 18.2625C3.00555 18.3302 3.02895 18.3965 3.07522 18.4461C3.12149 18.4953 3.18578 18.5236 3.25348 18.5236H16.747C16.8147 18.5236 16.879 18.4953 16.9253 18.4461C16.9716 18.3965 16.995 18.3302 16.9901 18.2625L16.1548 6.57302C16.146 6.4459 16.0398 6.34703 15.9122 6.34703H14.6274ZM13.1662 4.88584V4.64231C13.1662 2.89376 11.7488 1.4764 10.0003 1.4764C8.25171 1.4764 6.83436 2.89376 6.83436 4.64231V4.88584H13.1662Z" fill="white"/>
</svg>
