<svg width="1920" height="105" viewBox="0 0 1920 105" fill="none" xmlns="http://www.w3.org/2000/svg">
<g filter="url(#filter0_d_249_5720)">
<rect width="1920" height="95" fill="#272727"/>
</g>
<g clip-path="url(#clip0_249_5720)">
<path d="M142.939 43.0933V45.2839C143.116 48.8244 143.242 51.6263 143.04 57.2556C143.04 57.6631 142.686 57.9688 142.282 57.9688C141.878 57.9688 141.575 57.6122 141.575 57.2046C141.777 51.6263 141.65 48.8499 141.448 45.3858C141.448 45.3348 141.448 44.5707 141.474 43.0678C141.474 42.2018 141.398 41.565 141.271 41.132C141.246 41.1065 141.17 41.0556 141.069 41.0301C140.589 40.8518 139.882 40.8773 139.402 41.0811C139.326 41.1065 139.25 41.1575 139.2 41.1829C139.174 41.3103 139.174 41.5141 139.2 41.7688C139.2 41.8452 139.2 41.9216 139.225 42.0235C139.25 42.1254 139.25 42.2018 139.25 42.2273C139.275 42.4311 139.275 42.6094 139.275 42.7622C139.275 42.7877 139.301 43.7046 139.326 45.4877C139.377 49.0792 139.326 51.8556 139.099 53.9952C138.795 56.7716 138.088 58.0452 135.839 58.2235C135.435 58.249 135.081 57.9433 135.056 57.5358C135.031 57.1282 135.334 56.7716 135.738 56.7461C137.052 56.6443 137.381 56.1348 137.658 53.8169C137.861 51.7792 137.911 49.0537 137.861 45.4877C137.835 43.7046 137.81 42.7877 137.81 42.7622C137.81 42.6603 137.81 42.5329 137.785 42.3801C137.785 42.3546 137.785 42.2782 137.76 42.1509C137.734 42.049 137.734 41.9726 137.734 41.9216C137.658 41.0046 137.734 40.1895 138.846 39.7056C139.629 39.3999 140.766 39.349 141.549 39.6546C142.686 40.0622 142.939 40.9792 142.939 43.0933ZM146.772 48.315C148.339 48.2641 148.111 48.2386 148.97 48.2386C148.894 45.666 148.945 43.7556 149.122 42.482C149.299 41.1829 149.577 40.1895 150.284 39.782C150.89 39.4763 151.295 39.5782 152.406 39.7565C152.735 39.8329 153.013 40.0877 153.038 40.4188C153.189 40.5461 153.316 40.6735 153.392 40.8263C154.023 41.8707 154.225 44.4688 154.251 47.7292C154.251 49.3848 154.225 51.4226 154.175 53.1546L154.124 54.7848C154.099 56.0075 153.922 56.9499 153.543 57.6122C152.912 58.8094 151.699 58.9622 150.36 57.8414C149.779 57.3575 149.425 56.5678 149.324 55.5235C149.299 55.2433 149.299 54.8612 149.299 54.3773C149.299 53.9188 149.299 53.6131 149.273 53.4348C149.172 52.0848 149.097 50.8367 149.046 49.716C148.111 49.716 148.364 49.7414 146.797 49.7924L146.848 52.9254C146.873 55.0905 146.898 56.6952 146.898 57.765C146.898 58.1726 146.57 58.5037 146.166 58.5037C145.761 58.5037 145.433 58.1726 145.433 57.765C145.433 56.6952 145.408 55.0905 145.383 52.9254C145.332 50.7603 145.307 49.1556 145.307 48.0858C145.307 47.6018 145.332 46.8122 145.357 45.7169C145.408 43.5518 145.408 41.5905 145.231 40.1386C145.206 39.7311 145.484 39.349 145.888 39.3235C146.292 39.298 146.671 39.5782 146.696 39.9858C146.823 41.5395 146.873 43.5518 146.823 45.7678C146.797 46.8886 146.772 47.6528 146.772 48.0858V48.315ZM151.623 41.132C151.547 41.1065 151.471 41.1065 151.396 41.1065C151.219 41.0811 151.067 41.0811 150.991 41.1065C150.941 41.1829 150.89 41.2848 150.84 41.4122C150.739 41.7178 150.663 42.1254 150.587 42.6603C150.461 43.6028 150.385 44.9018 150.41 46.532C150.436 48.4424 150.537 50.7094 150.739 53.3329C150.764 53.5112 150.764 53.8678 150.764 54.3773C150.764 55.2688 150.739 56.2367 151.32 56.7207C151.648 57.0009 151.901 57.1537 152.053 57.1282C152.128 57.1028 152.204 57.0263 152.28 56.899C152.507 56.4405 152.634 55.7273 152.659 54.7848L152.709 53.1292C152.76 51.4226 152.785 49.4358 152.785 47.7292C152.76 44.5707 152.533 42.2782 152.128 41.5905L152.027 41.4886C151.8 41.3103 151.699 41.2084 151.674 41.1829L151.623 41.132ZM160.906 41.0556H160.275C159.618 41.0811 158.885 41.1065 158.38 41.2339C158.253 41.2594 158.178 41.2848 158.127 41.3103C158.102 41.3867 158.102 41.4886 158.102 41.616C158.077 41.8452 158.077 42.1763 158.077 42.5584C158.102 43.8829 158.228 45.6914 158.329 47.016C159.618 46.965 160.553 47.0669 161.134 47.3471C161.942 47.7292 162.801 48.4933 163.231 49.2829C163.761 50.3273 163.862 52.3395 163.559 53.9697C162.852 58.2744 161.108 58.9622 158.658 58.7329C157.47 58.6056 156.94 57.8414 156.839 56.8226C156.813 56.5424 156.813 56.1603 156.839 55.6763C156.889 55.1669 156.914 54.8612 156.914 54.7339C156.914 54.4282 156.94 53.6386 157.015 52.3395C157.066 51.3716 157.091 50.6075 157.066 50.0726C157.066 49.8943 157.041 49.5377 157.015 49.0537C156.99 48.5697 156.94 47.9839 156.889 47.2452C156.763 45.8188 156.636 43.9848 156.611 42.5839C156.611 41.7433 156.636 41.0811 156.763 40.699C157.167 39.8075 158.228 39.6801 159.441 39.6037C159.618 39.6037 159.896 39.6037 160.224 39.5782H160.856C161.311 39.5782 161.614 39.5528 161.765 39.5018C162.17 39.3999 162.574 39.6292 162.675 40.0112C162.776 40.4188 162.549 40.8263 162.17 40.9282C161.892 41.0046 161.487 41.0301 160.906 41.0556ZM158.43 48.5188C158.557 50.0726 158.582 50.4037 158.481 52.4414C158.405 53.5367 158.38 54.3009 158.38 54.7339C158.38 54.8612 158.355 55.2178 158.304 55.8037C158.279 56.1858 158.253 56.4914 158.279 56.6952C158.355 57.1028 158.405 57.2301 158.809 57.2556C160.553 57.4339 161.033 57.0009 161.538 55.8037C162.043 54.6065 162.321 52.849 162.245 51.499C162.17 50.149 161.841 49.7414 161.336 49.232C160.805 48.748 160.35 48.5188 159.593 48.4933C159.214 48.4678 158.809 48.4933 158.43 48.5188ZM166.591 55.7782C166.616 55.2178 166.768 52.7471 166.793 51.7282C166.945 47.0924 166.869 43.2207 166.591 40.1131C166.54 39.7056 166.844 39.298 167.273 39.2726C167.677 39.2471 168.082 39.5528 168.107 39.9603C168.385 43.1697 168.486 47.0924 168.309 51.7792C168.309 51.932 168.309 52.0848 168.284 52.2886C168.739 50.4801 169.042 49.0537 169.547 46.5575C169.8 45.3094 170.002 44.316 170.153 43.6537C170.179 43.4754 170.28 43.0933 170.457 42.482C170.583 41.8707 170.684 41.3612 170.735 41.0301V40.6226C170.709 40.4443 170.735 40.266 170.81 40.0877C170.962 39.7311 171.265 39.5528 171.669 39.5528C172.048 39.5528 172.326 39.7311 172.503 40.1131C172.554 40.266 172.604 40.4443 172.629 40.6735C172.73 41.2848 172.781 42.0999 172.781 44.0358C172.781 45.5895 172.832 47.9329 172.983 51.066C173.084 54.148 173.135 56.5169 173.135 58.0961C173.135 58.5037 172.781 58.8603 172.377 58.8603C171.947 58.8603 171.594 58.5037 171.594 58.0961C171.594 56.5678 171.543 54.4028 171.442 51.6009C171.341 48.799 171.29 46.8377 171.29 45.6914L170.507 49.4867C170.052 51.6773 169.572 53.4858 169.118 55.0141L168.587 56.5424L168.208 57.5103C168.132 57.6631 168.082 57.7905 168.031 57.8669L167.88 58.0961C167.551 58.4018 167.021 58.4528 166.692 58.1471C166.338 57.8414 166.313 57.4594 166.439 57.0263C166.465 57.0009 166.49 56.9244 166.515 56.8226L166.54 56.6697L166.591 56.5933V55.7782ZM179.857 57.4339V57.0773L179.453 55.4216C179.251 54.6575 179.099 54.0716 179.023 53.6641C178.644 51.8556 178.114 49.6905 177.432 47.1688L177.558 49.3848C177.76 52.9763 177.836 55.8292 177.76 57.8924C177.76 58.2999 177.406 58.6056 177.002 58.6056C176.598 58.6056 176.295 58.249 176.295 57.8414C176.37 55.8292 176.295 53.0273 176.092 49.4867C175.865 45.3348 175.739 42.5839 175.739 41.1829L175.587 40.6226C175.486 40.215 175.713 39.8075 176.118 39.7056C176.497 39.6037 176.901 39.8329 177.002 40.215L177.128 40.648C177.179 40.7499 177.204 40.8518 177.204 40.9792C177.33 41.4886 177.684 42.7367 178.265 44.698C179.377 48.6716 179.933 50.8367 180.438 53.3584L180.741 54.6575C180.767 54.4282 180.792 54.2244 180.817 54.0971C181.297 50.4037 181.752 47.398 182.131 45.3603L183.066 40.7244C183.091 40.5461 183.167 40.4188 183.293 40.3169C183.419 40.0112 183.647 39.8584 183.975 39.8584C184.379 39.8584 184.708 40.1895 184.708 40.5971C184.708 46.2263 184.91 51.9575 185.289 57.7905C185.314 58.198 185.011 58.5546 184.607 58.5801C184.203 58.6056 183.849 58.2999 183.824 57.8924C183.596 54.2754 183.419 50.6584 183.318 47.0669C182.914 49.3848 182.56 51.7792 182.282 54.2499C182.156 55.4471 181.903 56.8226 181.727 57.4339C181.626 57.816 181.474 58.0197 181.348 58.198C180.969 58.5292 180.286 58.5292 179.983 57.9433C179.908 57.816 179.882 57.6377 179.857 57.4339ZM198.716 39.9858C198.843 41.5395 198.893 43.5518 198.843 45.7678C198.817 46.8886 198.792 47.6528 198.792 48.0858C198.792 49.1556 198.817 50.7603 198.868 52.9254C198.893 55.0905 198.918 56.6952 198.918 57.765C198.918 58.1726 198.59 58.5037 198.186 58.5037C197.781 58.5037 197.453 58.1726 197.453 57.765C197.453 56.6952 197.428 55.0905 197.402 52.9254C197.352 50.7603 197.327 49.1556 197.327 48.0858C197.327 47.6018 197.352 46.8122 197.377 45.7169C197.428 43.5518 197.428 41.5905 197.251 40.1386C197.226 39.7311 197.503 39.349 197.908 39.3235C198.312 39.298 198.691 39.5782 198.716 39.9858ZM190.328 46.6594C191.238 46.532 192.248 46.3537 193.335 46.8377C194.446 47.2707 195.078 48.1877 195.406 50.098C195.71 52.0084 195.634 54.2754 195.204 55.9311C194.926 56.9499 194.497 57.6631 193.941 58.0707C193.537 58.3763 192.653 58.5546 191.844 58.6311C190.935 58.7075 189.974 58.6565 189.545 58.0707C189.469 57.9688 189.419 57.8414 189.393 57.6886C189.368 57.6122 189.368 57.5358 189.343 57.4594C189.343 57.332 189.343 57.1792 189.318 56.9754C189.318 56.6697 189.318 56.2367 189.343 55.6763C189.343 55.6509 189.343 55.2178 189.368 54.3773C189.393 53.9443 189.393 53.6895 189.393 53.6131C189.368 53.0018 189.267 52.0339 189.141 50.7094C189.014 49.3594 188.913 48.366 188.888 47.6782C188.888 47.1943 188.812 45.3348 188.787 44.6471C188.762 43.9594 188.661 42.6603 188.534 41.7433C188.459 41.2848 188.383 40.8518 188.282 40.4188C188.181 40.0112 188.433 39.6292 188.837 39.5273C189.216 39.4254 189.595 39.6801 189.697 40.0622C190.025 41.4377 190.227 43.6282 190.328 46.6594ZM192.653 57.0263L193.082 56.899C193.613 56.466 194.093 54.9631 194.118 53.0273C194.194 51.1678 193.865 49.4103 193.436 48.7226C192.93 47.9839 191.642 47.8311 190.454 48.1367C190.429 48.1622 190.404 48.1622 190.379 48.1622C190.404 48.6971 190.48 49.4867 190.606 50.5311C190.732 51.9065 190.833 52.9254 190.859 53.5622C190.859 53.6895 190.859 53.9697 190.833 54.4282C190.808 55.2688 190.808 55.7018 190.808 55.7273C190.783 56.2622 190.783 56.6697 190.783 56.9499C190.783 57.0263 190.783 57.1028 190.808 57.1282C190.833 57.1537 190.833 57.1537 190.859 57.1537C191.339 57.2301 192.071 57.1537 192.653 57.0263ZM203.771 34.6622C203.695 34.2801 203.316 33.9999 202.937 34.0763C202.533 34.1782 202.255 34.5603 202.356 34.9678C202.659 36.598 203.644 37.8207 204.933 37.948C206.272 38.0754 207.384 37.0311 207.864 35.2735C207.965 34.8914 207.737 34.4839 207.358 34.382C206.954 34.2801 206.55 34.5094 206.449 34.9169C206.272 35.5282 206.07 35.9358 205.817 36.165C205.565 36.3943 205.312 36.4961 205.085 36.4707C204.605 36.4452 203.998 35.8594 203.771 34.6622ZM201.775 55.7782C201.8 55.2178 201.952 52.7471 201.977 51.7282C202.129 47.0924 202.053 43.2207 201.775 40.1131C201.724 39.7056 202.027 39.298 202.457 39.2726C202.861 39.2471 203.265 39.5528 203.291 39.9603C203.569 43.1697 203.67 47.0924 203.493 51.7792C203.493 51.932 203.493 52.0848 203.468 52.2886C203.922 50.4801 204.226 49.0537 204.731 46.5575C204.984 45.3094 205.186 44.316 205.337 43.6537C205.362 43.4754 205.464 43.0933 205.64 42.482C205.767 41.8707 205.868 41.3612 205.918 41.0301V40.6226C205.893 40.4443 205.918 40.266 205.994 40.0877C206.146 39.7311 206.449 39.5528 206.853 39.5528C207.232 39.5528 207.51 39.7311 207.687 40.1131C207.737 40.266 207.788 40.4443 207.813 40.6735C207.914 41.2848 207.965 42.0999 207.965 44.0358C207.965 45.5895 208.015 47.9329 208.167 51.066C208.268 54.148 208.319 56.5169 208.319 58.0961C208.319 58.5037 207.965 58.8603 207.561 58.8603C207.131 58.8603 206.777 58.5037 206.777 58.0961C206.777 56.5678 206.727 54.4028 206.626 51.6009C206.525 48.799 206.474 46.8377 206.474 45.6914L205.691 49.4867C205.236 51.6773 204.756 53.4858 204.301 55.0141L203.771 56.5424L203.392 57.5103C203.316 57.6631 203.265 57.7905 203.215 57.8669L203.063 58.0961C202.735 58.4018 202.204 58.4528 201.876 58.1471C201.522 57.8414 201.497 57.4594 201.623 57.0263C201.648 57.0009 201.674 56.9244 201.699 56.8226L201.724 56.6697L201.775 56.5933V55.7782ZM216.734 51.7792L211.63 51.932C211.226 51.9575 210.872 51.6518 210.847 51.2443C210.822 50.8367 211.125 50.4801 211.529 50.4546L216.683 50.3018C217.087 50.3018 217.441 50.6075 217.441 51.015C217.441 51.4226 217.138 51.7792 216.734 51.7792ZM224.852 55.7018C224.877 54.6065 224.877 53.9188 224.877 53.6131C224.903 52.6707 224.928 51.2443 224.928 49.3339C224.978 47.4235 224.978 45.9971 224.978 45.0546C225.004 44.7235 225.004 44.2905 225.029 43.7301C225.08 42.5839 225.08 41.8197 225.004 41.0301C224.978 40.6226 225.231 40.266 225.635 40.215C226.04 40.1386 226.393 40.4188 226.469 40.8263C226.545 41.6669 226.545 42.6094 226.494 43.8065C226.469 44.3924 226.469 44.8254 226.444 45.0546C226.444 45.9971 226.444 47.4235 226.393 49.3339C226.393 51.2443 226.368 52.6707 226.343 53.6131V53.9443H226.393C226.798 53.9443 227.151 54.2499 227.151 54.6575C227.227 56.9244 227.252 58.7839 227.252 60.2358C227.227 60.6433 226.899 60.9744 226.494 60.9744C226.09 60.9744 225.762 60.6433 225.762 60.2358V58.249C225.736 58.249 225.686 58.249 225.661 58.2744H225.585C225.534 58.2999 225.484 58.3254 225.408 58.3254C225.307 58.3254 225.155 58.3254 224.953 58.3509C224.145 58.4018 222.957 58.4273 222.174 58.4273H221.643C221.416 58.4273 221.239 58.4018 221.138 58.3509C220.254 57.9943 219.9 57.1792 219.951 55.7782V55.0395C219.976 54.7848 219.951 54.5811 219.925 54.4537C219.85 52.9254 219.749 50.5565 219.723 47.3471C219.698 46.5065 219.698 45.7424 219.723 45.1056C219.774 43.7811 219.749 42.0744 219.546 40.8263C219.471 40.4188 219.749 40.0367 220.153 39.9603C220.557 39.8839 220.936 40.1641 221.012 40.5716C221.189 41.9216 221.239 43.832 221.189 45.1565C221.163 45.8188 221.163 46.532 221.189 47.3216C221.214 50.5056 221.315 52.8744 221.391 54.3773C221.416 54.5556 221.441 54.7848 221.391 55.0905V55.8037C221.391 56.2877 221.441 56.6188 221.517 56.8226C221.542 56.8735 221.593 56.9244 221.643 56.9499H221.694L222.174 56.9244C222.881 56.9499 224.069 56.9244 224.852 56.8735V55.7018ZM231.388 58.1216C231.565 57.2046 231.489 55.116 231.413 54.199C231.388 53.766 231.312 53.1037 231.237 52.2377C231.161 51.3461 231.085 50.6584 231.06 50.1744C230.782 46.4301 230.706 43.4499 230.731 42.049C230.731 41.5905 230.757 41.2339 230.782 40.9537C230.807 40.6226 230.883 40.1895 231.262 39.9603C231.514 39.8075 231.818 39.7565 232.197 39.782C232.247 39.8075 232.348 39.8075 232.5 39.8329C232.576 39.8584 232.626 39.8584 232.651 39.8584C234.9 39.9603 236.568 41.5395 237.124 43.4754C237.68 45.4367 237.427 47.9329 235.633 49.3594C237.452 50.2509 238.463 51.7792 238.463 54.0461C238.463 55.7528 237.755 57.1028 236.618 57.8924C235.481 58.7075 234.243 59.1405 232.803 59.3443C232.449 59.3697 232.197 59.2424 232.045 58.9367C231.641 58.8603 231.363 58.5292 231.388 58.1216ZM232.247 41.2848H232.222C232.197 41.4886 232.197 41.7433 232.197 42.0744C232.171 43.2971 232.298 46.3792 232.424 48.7226C232.5 48.6971 232.576 48.6971 232.702 48.6971H233.182C234.369 48.5952 234.824 48.315 235.33 47.5254C235.582 47.1433 235.734 46.7103 235.81 46.2518C236.239 43.6792 234.85 41.4377 232.601 41.3358C232.5 41.3358 232.374 41.3103 232.247 41.2848ZM232.525 50.2509C232.55 50.6584 232.626 51.2697 232.702 52.0848C232.854 53.715 232.904 54.199 232.955 55.8801C232.98 56.7207 232.955 57.3829 232.904 57.8414C235.405 57.4339 236.997 56.2112 236.997 54.0461C236.997 52.3395 236.34 51.3971 235.178 50.7603C234.597 50.4546 233.965 50.2763 233.334 50.2254C233.308 50.2254 233.207 50.2254 233.03 50.2509C232.854 50.2763 232.677 50.2763 232.525 50.2509ZM243.777 50.0726H243.675L243.802 52.849V53.3839C243.777 53.6641 243.777 53.9952 243.751 54.4282C243.726 55.2943 243.701 56.2877 243.701 56.9754C243.726 57.0773 243.726 57.1537 243.726 57.2046H243.751C244.282 57.2301 245.015 57.2301 246.025 57.1537L246.884 57.1028C247.288 57.1028 247.617 57.4339 247.617 57.8414C247.617 58.249 247.288 58.5801 246.884 58.5801L246.05 58.6311C245.116 58.7075 244.282 58.7075 243.65 58.682C243.246 58.6565 242.766 58.5801 242.488 58.249C242.311 58.0452 242.286 57.816 242.286 57.6122C242.261 57.4594 242.261 57.2556 242.235 57.0009C242.235 56.2622 242.261 55.2433 242.286 54.4282C242.311 54.0207 242.311 53.6895 242.336 53.4348V52.8999C242.336 52.7726 242.311 51.9575 242.235 50.4801C242.109 47.5509 242.008 44.8763 242.033 43.0424C242.033 41.9216 242.059 41.132 242.235 40.7499C242.64 39.9094 243.675 39.7056 244.686 39.7311C245.444 39.7565 246.177 39.8839 246.859 40.0877C247.263 40.215 247.465 40.6226 247.364 41.0046C247.238 41.4122 246.834 41.616 246.455 41.5141C245.874 41.3358 245.267 41.2339 244.636 41.2084C244.282 41.2084 244.004 41.2339 243.777 41.2848C243.65 41.3103 243.6 41.3612 243.574 41.3867V41.4377C243.549 41.5141 243.524 41.616 243.524 41.7943C243.499 42.0999 243.499 42.5075 243.499 43.0424C243.473 43.8575 243.499 45.0546 243.549 46.6594L243.625 48.5952H243.675C245.04 48.5188 245.823 48.4678 246.05 48.4678C246.455 48.4678 246.783 48.799 246.783 49.2065C246.783 49.6141 246.455 49.9452 246.05 49.9452C245.874 49.9452 245.116 49.9961 243.777 50.0726ZM250.606 39.9858C251.238 39.9858 252.173 39.9094 253.436 39.782C254.725 39.6292 255.71 39.5528 256.392 39.5528C256.796 39.5528 257.125 39.8839 257.125 40.2914C257.125 40.699 256.796 41.0301 256.392 41.0301C255.786 41.0301 254.977 41.0811 253.941 41.2084C253.941 42.966 253.992 45.666 254.093 49.3084C254.194 52.9509 254.244 55.7273 254.244 57.6122C254.244 58.0197 253.916 58.3509 253.512 58.3509C253.108 58.3509 252.779 58.0197 252.779 57.6122C252.779 55.7273 252.729 52.9763 252.653 49.3594C252.552 45.7424 252.501 43.0678 252.476 41.3612C251.768 41.4377 251.137 41.4631 250.606 41.4631C250.202 41.4631 249.874 41.132 249.874 40.7244C249.874 40.3169 250.202 39.9858 250.606 39.9858ZM266.396 53.1546L266.346 54.7848C266.32 56.0075 266.143 56.9499 265.764 57.6122C265.133 58.8094 263.92 58.9622 262.581 57.8414C262 57.3575 261.646 56.5678 261.545 55.5235C261.52 55.2433 261.52 54.8612 261.52 54.3773C261.52 53.9188 261.52 53.6131 261.495 53.4348C261.09 48.1367 261.065 44.5197 261.343 42.482C261.52 41.1829 261.798 40.1895 262.505 39.782C263.112 39.4763 263.516 39.5782 264.627 39.7565C264.956 39.8329 265.234 40.0877 265.259 40.4188C265.411 40.5461 265.537 40.6735 265.613 40.8263C266.244 41.8707 266.447 44.4688 266.472 47.7292C266.472 49.3848 266.447 51.4226 266.396 53.1546ZM264.35 41.5905L264.249 41.4886C264.021 41.3103 263.92 41.2084 263.895 41.1829L263.844 41.132C263.768 41.1065 263.693 41.1065 263.617 41.1065C263.44 41.0811 263.288 41.0811 263.213 41.1065C263.162 41.1829 263.112 41.2848 263.061 41.4122C262.96 41.7178 262.884 42.1254 262.808 42.6603C262.682 43.6028 262.606 44.9018 262.632 46.532C262.657 48.4424 262.758 50.7094 262.96 53.3329C262.985 53.5112 262.985 53.8678 262.985 54.3773C262.985 55.2688 262.96 56.2367 263.541 56.7207C263.87 57.0009 264.122 57.1537 264.274 57.1282C264.35 57.1028 264.425 57.0263 264.501 56.899C264.729 56.4405 264.855 55.7273 264.88 54.7848L264.931 53.1292C264.981 51.4226 265.006 49.4358 265.006 47.7292C264.981 44.5707 264.754 42.2782 264.35 41.5905ZM275.697 39.8075C275.697 41.7688 275.772 44.698 275.924 48.5952C276.076 52.5178 276.151 55.4726 276.151 57.4339C276.151 57.8414 275.823 58.1726 275.419 58.1726C275.015 58.1726 274.686 57.8414 274.686 57.4339C274.686 55.6254 274.636 53.3584 274.535 50.582C272.008 51.3971 270.063 50.0216 269.229 47.0669C268.774 45.5131 268.547 43.0933 268.547 39.8075C268.547 39.3999 268.875 39.0688 269.279 39.0688C269.684 39.0688 270.012 39.3999 270.012 39.8075C270.012 42.9405 270.214 45.2075 270.644 46.6339C271.275 48.9518 272.387 49.8433 274.484 49.0537C274.307 44.8509 274.231 41.7688 274.231 39.8075C274.231 39.3999 274.56 39.0688 274.964 39.0688C275.368 39.0688 275.697 39.3999 275.697 39.8075ZM280.315 57.332V48.6207C280.265 47.4235 280.189 45.7678 280.113 44.3669C280.088 44.1886 280.088 43.8829 280.063 43.4499C280.037 42.5584 280.012 42.3546 279.936 41.7178C279.886 41.3867 279.835 41.1065 279.759 40.8263C279.658 40.4443 279.886 40.0367 280.29 39.9348C280.669 39.8329 281.073 40.0622 281.174 40.4697C281.351 41.0811 281.452 41.9471 281.477 42.3801C281.503 42.8131 281.578 44.0358 281.578 44.265C281.654 45.4622 281.705 46.7612 281.73 48.1367C282.867 48.0858 283.903 48.0094 284.838 47.882C284.711 45.6914 284.56 43.1697 284.358 40.2914C284.332 39.8839 284.636 39.5273 285.04 39.5018C285.444 39.4763 285.798 39.782 285.823 40.1895C286.303 46.9395 286.556 52.6197 286.556 57.2301C286.556 57.6377 286.227 57.9688 285.823 57.9688C285.419 57.9688 285.09 57.6377 285.09 57.2301C285.09 54.7594 285.04 52.1358 284.913 49.3594C283.953 49.4867 282.892 49.5631 281.755 49.6141C281.781 50.582 281.781 53.1546 281.781 57.332C281.781 57.7395 281.452 58.0707 281.048 58.0707C280.644 58.0707 280.315 57.7395 280.315 57.332ZM299.975 39.9858C300.101 41.5395 300.151 43.5518 300.101 45.7678C300.076 46.8886 300.05 47.6528 300.05 48.0858C300.05 49.1556 300.076 50.7603 300.126 52.9254C300.151 55.0905 300.177 56.6952 300.177 57.765C300.177 58.1726 299.848 58.5037 299.444 58.5037C299.04 58.5037 298.711 58.1726 298.711 57.765C298.711 56.6952 298.686 55.0905 298.661 52.9254C298.61 50.7603 298.585 49.1556 298.585 48.0858C298.585 47.6018 298.61 46.8122 298.636 45.7169C298.686 43.5518 298.686 41.5905 298.509 40.1386C298.484 39.7311 298.762 39.349 299.166 39.3235C299.57 39.298 299.949 39.5782 299.975 39.9858ZM291.587 46.6594C292.496 46.532 293.507 46.3537 294.593 46.8377C295.705 47.2707 296.336 48.1877 296.665 50.098C296.968 52.0084 296.892 54.2754 296.463 55.9311C296.185 56.9499 295.755 57.6631 295.199 58.0707C294.795 58.3763 293.911 58.5546 293.102 58.6311C292.193 58.7075 291.233 58.6565 290.803 58.0707C290.728 57.9688 290.677 57.8414 290.652 57.6886C290.626 57.6122 290.626 57.5358 290.601 57.4594C290.601 57.332 290.601 57.1792 290.576 56.9754C290.576 56.6697 290.576 56.2367 290.601 55.6763C290.601 55.6509 290.601 55.2178 290.626 54.3773C290.652 53.9443 290.652 53.6895 290.652 53.6131C290.626 53.0018 290.525 52.0339 290.399 50.7094C290.273 49.3594 290.172 48.366 290.146 47.6782C290.146 47.1943 290.071 45.3348 290.045 44.6471C290.02 43.9594 289.919 42.6603 289.793 41.7433C289.717 41.2848 289.641 40.8518 289.54 40.4188C289.439 40.0112 289.692 39.6292 290.096 39.5273C290.475 39.4254 290.854 39.6801 290.955 40.0622C291.283 41.4377 291.485 43.6282 291.587 46.6594ZM293.911 57.0263L294.34 56.899C294.871 56.466 295.351 54.9631 295.376 53.0273C295.452 51.1678 295.124 49.4103 294.694 48.7226C294.189 47.9839 292.9 47.8311 291.713 48.1367C291.688 48.1622 291.662 48.1622 291.637 48.1622C291.662 48.6971 291.738 49.4867 291.864 50.5311C291.991 51.9065 292.092 52.9254 292.117 53.5622C292.117 53.6895 292.117 53.9697 292.092 54.4282C292.067 55.2688 292.067 55.7018 292.067 55.7273C292.041 56.2622 292.041 56.6697 292.041 56.9499C292.041 57.0263 292.041 57.1028 292.067 57.1282C292.092 57.1537 292.092 57.1537 292.117 57.1537C292.597 57.2301 293.33 57.1537 293.911 57.0263ZM305.03 34.6622C304.954 34.2801 304.575 33.9999 304.196 34.0763C303.792 34.1782 303.514 34.5603 303.615 34.9678C303.918 36.598 304.903 37.8207 306.192 37.948C307.531 38.0754 308.643 37.0311 309.123 35.2735C309.224 34.8914 308.996 34.4839 308.617 34.382C308.213 34.2801 307.809 34.5094 307.708 34.9169C307.531 35.5282 307.329 35.9358 307.076 36.165C306.824 36.3943 306.571 36.4961 306.343 36.4707C305.863 36.4452 305.257 35.8594 305.03 34.6622ZM303.034 55.7782C303.059 55.2178 303.211 52.7471 303.236 51.7282C303.387 47.0924 303.312 43.2207 303.034 40.1131C302.983 39.7056 303.286 39.298 303.716 39.2726C304.12 39.2471 304.524 39.5528 304.55 39.9603C304.828 43.1697 304.929 47.0924 304.752 51.7792C304.752 51.932 304.752 52.0848 304.727 52.2886C305.181 50.4801 305.484 49.0537 305.99 46.5575C306.242 45.3094 306.445 44.316 306.596 43.6537C306.621 43.4754 306.722 43.0933 306.899 42.482C307.026 41.8707 307.127 41.3612 307.177 41.0301V40.6226C307.152 40.4443 307.177 40.266 307.253 40.0877C307.405 39.7311 307.708 39.5528 308.112 39.5528C308.491 39.5528 308.769 39.7311 308.946 40.1131C308.996 40.266 309.047 40.4443 309.072 40.6735C309.173 41.2848 309.224 42.0999 309.224 44.0358C309.224 45.5895 309.274 47.9329 309.426 51.066C309.527 54.148 309.577 56.5169 309.577 58.0961C309.577 58.5037 309.224 58.8603 308.819 58.8603C308.39 58.8603 308.036 58.5037 308.036 58.0961C308.036 56.5678 307.986 54.4028 307.885 51.6009C307.784 48.799 307.733 46.8377 307.733 45.6914L306.95 49.4867C306.495 51.6773 306.015 53.4858 305.56 55.0141L305.03 56.5424L304.651 57.5103C304.575 57.6631 304.524 57.7905 304.474 57.8669L304.322 58.0961C303.994 58.4018 303.463 58.4528 303.135 58.1471C302.781 57.8414 302.756 57.4594 302.882 57.0263C302.907 57.0009 302.933 56.9244 302.958 56.8226L302.983 56.6697L303.034 56.5933V55.7782ZM314.48 55.8037C314.935 56.0584 315.238 56.3641 315.389 56.7461C315.592 57.1537 315.465 57.7905 315.036 58.0961C314.455 58.4018 313.949 58.2235 313.621 57.816C313.343 57.4594 313.191 56.9499 313.166 56.2622C313.166 55.8546 313.469 55.498 313.874 55.498C314.126 55.498 314.328 55.5999 314.48 55.8037ZM318.507 41.3612V40.8773C318.507 40.8009 318.507 40.7244 318.532 40.6735C318.532 40.5461 318.558 40.4188 318.634 40.3169C318.836 39.9603 319.24 39.7056 319.872 39.5782C321.817 39.0943 323.181 40.8009 323.863 43.0424C324.47 44.9528 324.571 47.2707 324.141 48.4933C323.661 49.7414 322.499 50.6329 320.63 51.1678C320.705 53.7914 320.68 56.1348 320.503 58.198C320.478 58.6056 320.124 58.9112 319.72 58.8858C319.316 58.8603 319.013 58.5037 319.038 58.0961C319.29 54.9886 319.189 50.582 318.76 44.8763C318.558 42.3546 318.532 42.049 318.507 41.3612ZM320.175 41.0046L319.973 41.0556V41.3103C319.998 41.9471 320.023 42.5329 320.225 44.7744C320.377 46.6848 320.478 48.315 320.554 49.6395C322.979 48.8499 323.03 47.9329 322.929 46.099C322.828 44.2905 322.246 42.3546 321.438 41.4631C321.059 41.0556 320.63 40.9028 320.175 41.0046ZM331.508 56.6697H331.381C331.356 57.3065 331.356 57.8924 331.356 58.4273C331.356 58.8348 331.028 59.166 330.623 59.166C330.219 59.166 329.891 58.8348 329.891 58.4273C329.891 57.7905 329.891 57.1028 329.916 56.3641C329.006 56.0584 328.324 55.5999 327.87 54.9631C327.566 54.5556 327.339 54.0207 327.187 53.5877C327.036 53.1546 326.935 52.416 326.884 52.0084C326.834 51.6263 326.783 50.7603 326.783 50.4546V49.1301C326.783 46.6848 327.01 44.8254 327.465 43.5773C327.87 42.482 328.451 41.7433 329.209 41.3103C329.436 41.1829 329.663 41.1065 329.891 41.0301C329.84 40.3424 329.84 39.782 329.891 39.298C329.967 38.8905 330.295 38.5848 330.699 38.6358C331.103 38.6867 331.381 39.0433 331.356 39.4509C331.306 39.8839 331.306 40.3933 331.356 40.9792C331.432 41.0046 331.508 41.0046 331.584 41.0301H332.114C332.266 41.0811 332.594 41.132 332.822 41.2084C333.024 41.2848 333.302 41.4122 333.504 41.5395C334.54 42.3801 334.919 45.1056 334.919 48.1877C334.944 50.9386 334.666 53.9188 334.161 54.9122C333.554 56.1348 332.67 56.7207 331.508 56.6697ZM332.594 42.7112L332.544 42.6603C332.341 42.7622 332.139 42.7622 331.937 42.6858C331.786 42.6094 331.634 42.5584 331.482 42.5329V42.7622C331.508 43.2971 331.508 44.0612 331.508 45.1056C331.508 46.0226 331.508 46.7867 331.533 47.398C331.558 48.6461 331.533 51.2443 331.407 55.1924H331.558C332.645 55.2178 333.049 54.3263 333.276 52.0084C333.554 49.5377 333.529 46.5065 333.2 44.4943C333.024 43.5009 332.822 42.8895 332.594 42.7112ZM330.017 42.8131V42.5584L329.916 42.6094C329.486 42.8386 329.133 43.348 328.855 44.0867C328.451 45.182 328.248 46.8631 328.248 49.1301V50.2509C328.248 50.3782 328.274 51.1169 328.299 51.3207C328.299 51.4226 328.299 51.6009 328.324 51.8301C328.35 52.0594 328.35 52.2377 328.375 52.365L328.476 52.8235C328.577 53.2056 328.678 53.4094 328.804 53.6895C328.88 53.8424 328.956 53.9697 329.032 54.0971C329.234 54.3773 329.537 54.6065 329.967 54.7848C330.068 51.2188 330.093 48.7735 330.068 47.449C330.042 46.7867 330.042 46.0226 330.042 45.1565C330.042 44.1122 330.042 43.348 330.017 42.8131Z" fill="white"/>
</g>
<rect x="1457" y="24" width="192" height="48" rx="24" fill="#F9CC49"/>
<path d="M1491.13 53.112C1490.38 53.112 1489.69 52.9533 1489.08 52.636C1488.47 52.3187 1487.99 51.88 1487.65 51.32L1488.85 50.578C1489.08 50.9607 1489.38 51.2593 1489.76 51.474C1490.15 51.6793 1490.6 51.782 1491.11 51.782C1491.74 51.782 1492.23 51.6327 1492.56 51.334C1492.91 51.0353 1493.08 50.6387 1493.08 50.144C1493.08 49.8267 1493.01 49.5467 1492.87 49.304C1492.73 49.052 1492.52 48.8607 1492.24 48.73C1491.96 48.59 1491.62 48.52 1491.22 48.52H1490.11V47.302H1491.22C1491.55 47.302 1491.82 47.2413 1492.04 47.12C1492.28 46.9893 1492.46 46.8167 1492.58 46.602C1492.7 46.378 1492.76 46.126 1492.76 45.846C1492.76 45.5567 1492.69 45.3047 1492.55 45.09C1492.42 44.866 1492.23 44.6933 1491.97 44.572C1491.72 44.4413 1491.41 44.376 1491.05 44.376C1490.55 44.376 1490.11 44.4787 1489.75 44.684C1489.39 44.8893 1489.11 45.1693 1488.91 45.524L1487.76 44.726C1488.11 44.1847 1488.55 43.7553 1489.09 43.438C1489.64 43.1207 1490.32 42.962 1491.12 42.962C1491.76 42.962 1492.32 43.0693 1492.79 43.284C1493.26 43.4893 1493.63 43.7927 1493.89 44.194C1494.15 44.586 1494.28 45.062 1494.28 45.622C1494.28 46.0887 1494.17 46.5273 1493.93 46.938C1493.71 47.3393 1493.36 47.6427 1492.88 47.848C1493.45 48.0067 1493.89 48.3053 1494.2 48.744C1494.52 49.1827 1494.68 49.696 1494.68 50.284C1494.68 50.8813 1494.52 51.3947 1494.21 51.824C1493.91 52.244 1493.49 52.566 1492.95 52.79C1492.43 53.0047 1491.83 53.112 1491.13 53.112ZM1499.01 43.06H1500.49L1504.36 53H1502.7L1501.65 50.298H1497.82L1496.78 53H1495.12L1499.01 43.06ZM1501.35 49.136L1499.75 44.782L1498.1 49.136H1501.35ZM1505.6 53V43.06H1507.17V47.218H1508.33L1511.45 43.06H1513.24L1509.59 47.876L1513.51 53H1511.59L1508.33 48.66H1507.17V53H1505.6ZM1517.82 43.06H1519.3L1523.17 53H1521.52L1520.47 50.298H1516.63L1515.59 53H1513.93L1517.82 43.06ZM1520.16 49.136L1518.56 44.782L1516.91 49.136H1520.16ZM1527.28 53.112C1526.53 53.112 1525.84 52.9533 1525.22 52.636C1524.62 52.3187 1524.14 51.88 1523.8 51.32L1525 50.578C1525.22 50.9607 1525.53 51.2593 1525.91 51.474C1526.3 51.6793 1526.75 51.782 1527.25 51.782C1527.89 51.782 1528.37 51.6327 1528.71 51.334C1529.06 51.0353 1529.23 50.6387 1529.23 50.144C1529.23 49.8267 1529.16 49.5467 1529.02 49.304C1528.88 49.052 1528.67 48.8607 1528.39 48.73C1528.11 48.59 1527.77 48.52 1527.37 48.52H1526.26V47.302H1527.37C1527.69 47.302 1527.97 47.2413 1528.19 47.12C1528.43 46.9893 1528.6 46.8167 1528.72 46.602C1528.85 46.378 1528.91 46.126 1528.91 45.846C1528.91 45.5567 1528.84 45.3047 1528.7 45.09C1528.57 44.866 1528.37 44.6933 1528.12 44.572C1527.87 44.4413 1527.56 44.376 1527.2 44.376C1526.69 44.376 1526.26 44.4787 1525.9 44.684C1525.54 44.8893 1525.26 45.1693 1525.06 45.524L1523.91 44.726C1524.25 44.1847 1524.7 43.7553 1525.24 43.438C1525.79 43.1207 1526.47 42.962 1527.27 42.962C1527.91 42.962 1528.47 43.0693 1528.93 43.284C1529.41 43.4893 1529.78 43.7927 1530.04 44.194C1530.3 44.586 1530.43 45.062 1530.43 45.622C1530.43 46.0887 1530.32 46.5273 1530.08 46.938C1529.86 47.3393 1529.51 47.6427 1529.03 47.848C1529.6 48.0067 1530.04 48.3053 1530.35 48.744C1530.67 49.1827 1530.82 49.696 1530.82 50.284C1530.82 50.8813 1530.67 51.3947 1530.36 51.824C1530.05 52.244 1529.63 52.566 1529.1 52.79C1528.58 53.0047 1527.97 53.112 1527.28 53.112ZM1535.16 43.06H1536.64L1540.5 53H1538.85L1537.8 50.298H1533.97L1532.93 53H1531.26L1535.16 43.06ZM1537.49 49.136L1535.9 44.782L1534.25 49.136H1537.49ZM1548.1 44.446H1544.79V53H1543.21V44.446H1539.89V43.06H1548.1V44.446ZM1549.44 53V43.06H1551.01V46.728H1553.24C1553.97 46.728 1554.58 46.8587 1555.07 47.12C1555.57 47.372 1555.95 47.7313 1556.21 48.198C1556.47 48.6647 1556.6 49.2153 1556.6 49.85C1556.6 50.4473 1556.47 50.9887 1556.22 51.474C1555.97 51.95 1555.6 52.3233 1555.11 52.594C1554.63 52.8647 1554.04 53 1553.34 53H1549.44ZM1551.01 51.698H1553.11C1553.55 51.698 1553.91 51.614 1554.18 51.446C1554.46 51.278 1554.66 51.054 1554.79 50.774C1554.92 50.4847 1554.99 50.1767 1554.99 49.85C1554.99 49.5327 1554.93 49.234 1554.81 48.954C1554.69 48.674 1554.5 48.45 1554.22 48.282C1553.94 48.114 1553.57 48.03 1553.1 48.03H1551.01V51.698ZM1564.57 53.112C1563.81 53.112 1563.12 52.9533 1562.51 52.636C1561.9 52.3187 1561.43 51.88 1561.08 51.32L1562.28 50.578C1562.51 50.9607 1562.81 51.2593 1563.19 51.474C1563.59 51.6793 1564.03 51.782 1564.54 51.782C1565.17 51.782 1565.66 51.6327 1565.99 51.334C1566.34 51.0353 1566.51 50.6387 1566.51 50.144C1566.51 49.8267 1566.44 49.5467 1566.3 49.304C1566.16 49.052 1565.95 48.8607 1565.67 48.73C1565.39 48.59 1565.05 48.52 1564.65 48.52H1563.54V47.302H1564.65C1564.98 47.302 1565.25 47.2413 1565.48 47.12C1565.71 46.9893 1565.89 46.8167 1566.01 46.602C1566.13 46.378 1566.19 46.126 1566.19 45.846C1566.19 45.5567 1566.12 45.3047 1565.98 45.09C1565.85 44.866 1565.66 44.6933 1565.41 44.572C1565.15 44.4413 1564.85 44.376 1564.48 44.376C1563.98 44.376 1563.54 44.4787 1563.18 44.684C1562.83 44.8893 1562.55 45.1693 1562.34 45.524L1561.19 44.726C1561.54 44.1847 1561.98 43.7553 1562.52 43.438C1563.07 43.1207 1563.75 42.962 1564.55 42.962C1565.2 42.962 1565.75 43.0693 1566.22 43.284C1566.69 43.4893 1567.06 43.7927 1567.32 44.194C1567.59 44.586 1567.72 45.062 1567.72 45.622C1567.72 46.0887 1567.6 46.5273 1567.37 46.938C1567.14 47.3393 1566.79 47.6427 1566.32 47.848C1566.89 48.0067 1567.32 48.3053 1567.63 48.744C1567.95 49.1827 1568.11 49.696 1568.11 50.284C1568.11 50.8813 1567.95 51.3947 1567.65 51.824C1567.34 52.244 1566.92 52.566 1566.39 52.79C1565.86 53.0047 1565.26 53.112 1564.57 53.112ZM1577.6 50.438C1577.6 50.97 1577.46 51.4273 1577.18 51.81C1576.91 52.1927 1576.54 52.4867 1576.07 52.692C1575.61 52.8973 1575.09 53 1574.53 53H1569.79V43.06H1574.91C1575.38 43.06 1575.78 43.186 1576.12 43.438C1576.46 43.6807 1576.72 43.998 1576.9 44.39C1577.09 44.7727 1577.18 45.174 1577.18 45.594C1577.18 46.0793 1577.05 46.5367 1576.8 46.966C1576.56 47.386 1576.21 47.6987 1575.75 47.904C1576.32 48.072 1576.77 48.38 1577.1 48.828C1577.43 49.2667 1577.6 49.8033 1577.6 50.438ZM1575.99 50.144C1575.99 49.864 1575.93 49.612 1575.81 49.388C1575.7 49.1547 1575.54 48.968 1575.33 48.828C1575.14 48.6787 1574.9 48.604 1574.63 48.604H1571.36V51.642H1574.53C1574.81 51.642 1575.06 51.5767 1575.28 51.446C1575.5 51.306 1575.67 51.124 1575.79 50.9C1575.92 50.6667 1575.99 50.4147 1575.99 50.144ZM1571.36 44.418V47.344H1574.24C1574.5 47.344 1574.73 47.2833 1574.94 47.162C1575.15 47.0313 1575.31 46.8587 1575.43 46.644C1575.55 46.42 1575.61 46.168 1575.61 45.888C1575.61 45.5987 1575.56 45.3467 1575.44 45.132C1575.33 44.908 1575.18 44.7353 1574.98 44.614C1574.8 44.4833 1574.58 44.418 1574.32 44.418H1571.36ZM1583.37 53.07C1582.65 53.07 1582 52.93 1581.42 52.65C1580.84 52.37 1580.34 51.992 1579.92 51.516C1579.5 51.0307 1579.17 50.4893 1578.94 49.892C1578.72 49.2853 1578.61 48.6647 1578.61 48.03C1578.61 47.3673 1578.73 46.7373 1578.97 46.14C1579.21 45.5333 1579.55 44.9967 1579.98 44.53C1580.41 44.054 1580.91 43.6807 1581.49 43.41C1582.08 43.13 1582.71 42.99 1583.39 42.99C1584.1 42.99 1584.75 43.1347 1585.33 43.424C1585.91 43.7133 1586.41 44.1007 1586.82 44.586C1587.24 45.0713 1587.57 45.6127 1587.79 46.21C1588.02 46.8073 1588.14 47.4187 1588.14 48.044C1588.14 48.7067 1588.02 49.3413 1587.78 49.948C1587.54 50.5453 1587.21 51.082 1586.78 51.558C1586.35 52.0247 1585.84 52.3933 1585.26 52.664C1584.68 52.9347 1584.05 53.07 1583.37 53.07ZM1580.2 48.03C1580.2 48.4967 1580.28 48.9493 1580.43 49.388C1580.57 49.8267 1580.78 50.2187 1581.06 50.564C1581.34 50.9 1581.67 51.166 1582.06 51.362C1582.46 51.558 1582.89 51.656 1583.38 51.656C1583.88 51.656 1584.33 51.5533 1584.72 51.348C1585.12 51.1427 1585.44 50.8673 1585.7 50.522C1585.97 50.1673 1586.18 49.7753 1586.32 49.346C1586.46 48.9073 1586.53 48.4687 1586.53 48.03C1586.53 47.5633 1586.45 47.1153 1586.31 46.686C1586.17 46.2473 1585.96 45.86 1585.68 45.524C1585.4 45.1787 1585.06 44.908 1584.67 44.712C1584.28 44.516 1583.86 44.418 1583.38 44.418C1582.88 44.418 1582.43 44.5207 1582.04 44.726C1581.64 44.9313 1581.31 45.2067 1581.04 45.552C1580.77 45.8973 1580.56 46.2847 1580.41 46.714C1580.27 47.1433 1580.2 47.582 1580.2 48.03ZM1597.92 43.06V53H1596.34V48.618H1591.33V53H1589.76V43.06H1591.33V47.218H1596.34V43.06H1597.92ZM1604.3 53.07C1603.58 53.07 1602.93 52.93 1602.35 52.65C1601.77 52.37 1601.27 51.992 1600.85 51.516C1600.43 51.0307 1600.11 50.4893 1599.87 49.892C1599.65 49.2853 1599.54 48.6647 1599.54 48.03C1599.54 47.3673 1599.66 46.7373 1599.9 46.14C1600.14 45.5333 1600.48 44.9967 1600.91 44.53C1601.34 44.054 1601.84 43.6807 1602.42 43.41C1603.01 43.13 1603.64 42.99 1604.32 42.99C1605.03 42.99 1605.68 43.1347 1606.26 43.424C1606.84 43.7133 1607.34 44.1007 1607.75 44.586C1608.17 45.0713 1608.5 45.6127 1608.72 46.21C1608.95 46.8073 1609.07 47.4187 1609.07 48.044C1609.07 48.7067 1608.95 49.3413 1608.71 49.948C1608.47 50.5453 1608.14 51.082 1607.71 51.558C1607.28 52.0247 1606.77 52.3933 1606.19 52.664C1605.61 52.9347 1604.98 53.07 1604.3 53.07ZM1601.13 48.03C1601.13 48.4967 1601.21 48.9493 1601.36 49.388C1601.51 49.8267 1601.72 50.2187 1601.99 50.564C1602.27 50.9 1602.6 51.166 1602.99 51.362C1603.39 51.558 1603.83 51.656 1604.31 51.656C1604.81 51.656 1605.26 51.5533 1605.65 51.348C1606.05 51.1427 1606.37 50.8673 1606.63 50.522C1606.91 50.1673 1607.11 49.7753 1607.25 49.346C1607.39 48.9073 1607.46 48.4687 1607.46 48.03C1607.46 47.5633 1607.39 47.1153 1607.24 46.686C1607.1 46.2473 1606.89 45.86 1606.61 45.524C1606.33 45.1787 1605.99 44.908 1605.6 44.712C1605.22 44.516 1604.79 44.418 1604.31 44.418C1603.81 44.418 1603.36 44.5207 1602.97 44.726C1602.57 44.9313 1602.24 45.2067 1601.97 45.552C1601.7 45.8973 1601.49 46.2847 1601.34 46.714C1601.2 47.1433 1601.13 47.582 1601.13 48.03ZM1610.71 53V43.06H1612.28V47.218H1613.44L1616.56 43.06H1618.35L1614.7 47.876L1618.62 53H1616.7L1613.44 48.66H1612.28V53H1610.71Z" fill="#272727"/>
<path d="M772.462 53.904V50.614H772.938C773.199 50.614 773.423 50.5113 773.61 50.306C773.806 50.1007 773.969 49.774 774.1 49.326C774.24 48.878 774.347 48.29 774.422 47.562C774.506 46.8247 774.567 45.924 774.604 44.86L774.674 42.06H781.072V50.614H782.332V53.904H780.946V52H773.848V53.904H772.462ZM774.926 50.614H779.49V43.446H776.13L776.088 45.07C776.06 46.1433 776.004 47.0533 775.92 47.8C775.836 48.5373 775.715 49.1347 775.556 49.592C775.397 50.0493 775.187 50.39 774.926 50.614ZM788.064 52.07C787.346 52.07 786.697 51.93 786.118 51.65C785.54 51.37 785.04 50.992 784.62 50.516C784.2 50.0307 783.874 49.4893 783.64 48.892C783.416 48.2853 783.304 47.6647 783.304 47.03C783.304 46.3673 783.426 45.7373 783.668 45.14C783.911 44.5333 784.247 43.9967 784.676 43.53C785.106 43.054 785.61 42.6807 786.188 42.41C786.776 42.13 787.411 41.99 788.092 41.99C788.802 41.99 789.446 42.1347 790.024 42.424C790.612 42.7133 791.112 43.1007 791.522 43.586C791.942 44.0713 792.264 44.6127 792.488 45.21C792.722 45.8073 792.838 46.4187 792.838 47.044C792.838 47.7067 792.717 48.3413 792.474 48.948C792.241 49.5453 791.91 50.082 791.48 50.558C791.051 51.0247 790.542 51.3933 789.954 51.664C789.376 51.9347 788.746 52.07 788.064 52.07ZM784.9 47.03C784.9 47.4967 784.975 47.9493 785.124 48.388C785.274 48.8267 785.484 49.2187 785.754 49.564C786.034 49.9 786.37 50.166 786.762 50.362C787.154 50.558 787.593 50.656 788.078 50.656C788.582 50.656 789.03 50.5533 789.422 50.348C789.814 50.1427 790.141 49.8673 790.402 49.522C790.673 49.1673 790.878 48.7753 791.018 48.346C791.158 47.9073 791.228 47.4687 791.228 47.03C791.228 46.5633 791.154 46.1153 791.004 45.686C790.864 45.2473 790.654 44.86 790.374 44.524C790.094 44.1787 789.758 43.908 789.366 43.712C788.984 43.516 788.554 43.418 788.078 43.418C787.574 43.418 787.126 43.5207 786.734 43.726C786.342 43.9313 786.011 44.2067 785.74 44.552C785.47 44.8973 785.26 45.2847 785.11 45.714C784.97 46.1433 784.9 46.582 784.9 47.03ZM793.832 46.96C793.832 46.3533 793.939 45.7607 794.154 45.182C794.368 44.594 794.681 44.062 795.092 43.586C795.512 43.1007 796.02 42.718 796.618 42.438C797.215 42.1487 797.892 42.004 798.648 42.004C799.544 42.004 800.318 42.2093 800.972 42.62C801.625 43.0213 802.11 43.5393 802.428 44.174L801.196 45C801.009 44.5987 800.771 44.2813 800.482 44.048C800.202 43.8147 799.894 43.6513 799.558 43.558C799.231 43.4647 798.909 43.418 798.592 43.418C798.069 43.418 797.612 43.5253 797.22 43.74C796.828 43.9453 796.496 44.2207 796.226 44.566C795.964 44.9113 795.764 45.2987 795.624 45.728C795.493 46.1573 795.428 46.5867 795.428 47.016C795.428 47.492 795.507 47.954 795.666 48.402C795.824 48.8407 796.044 49.2327 796.324 49.578C796.613 49.914 796.954 50.18 797.346 50.376C797.738 50.572 798.167 50.67 798.634 50.67C798.951 50.67 799.282 50.614 799.628 50.502C799.973 50.39 800.29 50.2173 800.58 49.984C800.878 49.7413 801.112 49.424 801.28 49.032L802.582 49.774C802.376 50.2687 802.054 50.6887 801.616 51.034C801.186 51.3793 800.701 51.6407 800.16 51.818C799.628 51.9953 799.1 52.084 798.578 52.084C797.878 52.084 797.238 51.9393 796.66 51.65C796.081 51.3513 795.582 50.9593 795.162 50.474C794.742 49.9793 794.415 49.4287 794.182 48.822C793.948 48.206 793.832 47.5853 793.832 46.96ZM811.326 43.446H808.022V52H806.44V43.446H803.122V42.06H811.326V43.446ZM814.613 42.06H816.097L819.961 52H818.309L817.259 49.298H813.423L812.387 52H810.721L814.613 42.06ZM816.951 48.136L815.355 43.782L813.703 48.136H816.951ZM829.002 49.438C829.002 49.97 828.862 50.4273 828.582 50.81C828.312 51.1927 827.943 51.4867 827.476 51.692C827.01 51.8973 826.496 52 825.936 52H821.19V42.06H826.314C826.781 42.06 827.182 42.186 827.518 42.438C827.864 42.6807 828.125 42.998 828.302 43.39C828.489 43.7727 828.582 44.174 828.582 44.594C828.582 45.0793 828.456 45.5367 828.204 45.966C827.962 46.386 827.612 46.6987 827.154 46.904C827.724 47.072 828.172 47.38 828.498 47.828C828.834 48.2667 829.002 48.8033 829.002 49.438ZM827.392 49.144C827.392 48.864 827.332 48.612 827.21 48.388C827.098 48.1547 826.94 47.968 826.734 47.828C826.538 47.6787 826.305 47.604 826.034 47.604H822.758V50.642H825.936C826.216 50.642 826.464 50.5767 826.678 50.446C826.902 50.306 827.075 50.124 827.196 49.9C827.327 49.6667 827.392 49.4147 827.392 49.144ZM822.758 43.418V46.344H825.642C825.904 46.344 826.137 46.2833 826.342 46.162C826.548 46.0313 826.711 45.8587 826.832 45.644C826.954 45.42 827.014 45.168 827.014 44.888C827.014 44.5987 826.958 44.3467 826.846 44.132C826.734 43.908 826.58 43.7353 826.384 43.614C826.198 43.4833 825.978 43.418 825.726 43.418H822.758ZM830.652 52V42.06H832.22V46.218H833.382L836.504 42.06H838.296L834.642 46.876L838.562 52H836.644L833.382 47.66H832.22V52H830.652ZM842.873 42.06H844.357L848.221 52H846.569L845.519 49.298H841.683L840.647 52H838.981L842.873 42.06ZM845.211 48.136L843.615 43.782L841.963 48.136H845.211Z" fill="white"/>
<path d="M880.134 52V42.06H881.702V46.218H882.864L885.986 42.06H887.778L884.124 46.876L888.044 52H886.126L882.864 47.66H881.702V52H880.134ZM893.041 52.07C892.322 52.07 891.674 51.93 891.095 51.65C890.516 51.37 890.017 50.992 889.597 50.516C889.177 50.0307 888.85 49.4893 888.617 48.892C888.393 48.2853 888.281 47.6647 888.281 47.03C888.281 46.3673 888.402 45.7373 888.645 45.14C888.888 44.5333 889.224 43.9967 889.653 43.53C890.082 43.054 890.586 42.6807 891.165 42.41C891.753 42.13 892.388 41.99 893.069 41.99C893.778 41.99 894.422 42.1347 895.001 42.424C895.589 42.7133 896.088 43.1007 896.499 43.586C896.919 44.0713 897.241 44.6127 897.465 45.21C897.698 45.8073 897.815 46.4187 897.815 47.044C897.815 47.7067 897.694 48.3413 897.451 48.948C897.218 49.5453 896.886 50.082 896.457 50.558C896.028 51.0247 895.519 51.3933 894.931 51.664C894.352 51.9347 893.722 52.07 893.041 52.07ZM889.877 47.03C889.877 47.4967 889.952 47.9493 890.101 48.388C890.25 48.8267 890.46 49.2187 890.731 49.564C891.011 49.9 891.347 50.166 891.739 50.362C892.131 50.558 892.57 50.656 893.055 50.656C893.559 50.656 894.007 50.5533 894.399 50.348C894.791 50.1427 895.118 49.8673 895.379 49.522C895.65 49.1673 895.855 48.7753 895.995 48.346C896.135 47.9073 896.205 47.4687 896.205 47.03C896.205 46.5633 896.13 46.1153 895.981 45.686C895.841 45.2473 895.631 44.86 895.351 44.524C895.071 44.1787 894.735 43.908 894.343 43.712C893.96 43.516 893.531 43.418 893.055 43.418C892.551 43.418 892.103 43.5207 891.711 43.726C891.319 43.9313 890.988 44.2067 890.717 44.552C890.446 44.8973 890.236 45.2847 890.087 45.714C889.947 46.1433 889.877 46.582 889.877 47.03ZM907.6 42.06V52H906.018V47.618H901.006V52H899.438V42.06H901.006V46.218H906.018V42.06H907.6ZM917.137 43.446H913.833V52H912.251V43.446H908.933V42.06H917.137V43.446ZM920.424 42.06H921.908L925.772 52H924.12L923.07 49.298H919.234L918.198 52H916.532L920.424 42.06ZM922.762 48.136L921.166 43.782L919.514 48.136H922.762ZM927.015 52V42.06H928.583V46.218H929.745L932.867 42.06H934.659L931.005 46.876L934.925 52H933.007L929.745 47.66H928.583V52H927.015ZM943.66 43.446H940.356V52H938.774V43.446H935.456V42.06H943.66V43.446ZM944.993 52V42.06H946.561V45.728H948.787C949.515 45.728 950.126 45.8587 950.621 46.12C951.125 46.372 951.503 46.7313 951.755 47.198C952.016 47.6647 952.147 48.2153 952.147 48.85C952.147 49.4473 952.021 49.9887 951.769 50.474C951.517 50.95 951.148 51.3233 950.663 51.594C950.178 51.8647 949.585 52 948.885 52H944.993ZM946.561 50.698H948.661C949.1 50.698 949.459 50.614 949.739 50.446C950.019 50.278 950.22 50.054 950.341 49.774C950.472 49.4847 950.537 49.1767 950.537 48.85C950.537 48.5327 950.476 48.234 950.355 47.954C950.243 47.674 950.047 47.45 949.767 47.282C949.496 47.114 949.123 47.03 948.647 47.03H946.561V50.698ZM953.715 52V42.074H955.297V52H953.715Z" fill="white"/>
<path d="M987.49 46.96C987.49 46.3533 987.597 45.7607 987.812 45.182C988.027 44.594 988.339 44.062 988.75 43.586C989.17 43.1007 989.679 42.718 990.276 42.438C990.873 42.1487 991.55 42.004 992.306 42.004C993.202 42.004 993.977 42.2093 994.63 42.62C995.283 43.0213 995.769 43.5393 996.086 44.174L994.854 45C994.667 44.5987 994.429 44.2813 994.14 44.048C993.86 43.8147 993.552 43.6513 993.216 43.558C992.889 43.4647 992.567 43.418 992.25 43.418C991.727 43.418 991.27 43.5253 990.878 43.74C990.486 43.9453 990.155 44.2207 989.884 44.566C989.623 44.9113 989.422 45.2987 989.282 45.728C989.151 46.1573 989.086 46.5867 989.086 47.016C989.086 47.492 989.165 47.954 989.324 48.402C989.483 48.8407 989.702 49.2327 989.982 49.578C990.271 49.914 990.612 50.18 991.004 50.376C991.396 50.572 991.825 50.67 992.292 50.67C992.609 50.67 992.941 50.614 993.286 50.502C993.631 50.39 993.949 50.2173 994.238 49.984C994.537 49.7413 994.77 49.424 994.938 49.032L996.24 49.774C996.035 50.2687 995.713 50.6887 995.274 51.034C994.845 51.3793 994.359 51.6407 993.818 51.818C993.286 51.9953 992.759 52.084 992.236 52.084C991.536 52.084 990.897 51.9393 990.318 51.65C989.739 51.3513 989.24 50.9593 988.82 50.474C988.4 49.9793 988.073 49.4287 987.84 48.822C987.607 48.206 987.49 47.5853 987.49 46.96ZM997.704 52V42.06H999.272V46.218H1000.43L1003.56 42.06H1005.35L1001.69 46.876L1005.61 52H1003.7L1000.43 47.66H999.272V52H997.704ZM1007.13 52V42.06H1008.69V49.788L1014 42.06H1015.47V52H1013.9V44.398L1008.65 52H1007.13ZM1017.12 53.904V50.614H1017.59C1017.85 50.614 1018.08 50.5113 1018.26 50.306C1018.46 50.1007 1018.62 49.774 1018.75 49.326C1018.89 48.878 1019 48.29 1019.08 47.562C1019.16 46.8247 1019.22 45.924 1019.26 44.86L1019.33 42.06H1025.73V50.614H1026.99V53.904H1025.6V52H1018.5V53.904H1017.12ZM1019.58 50.614H1024.14V43.446H1020.78L1020.74 45.07C1020.71 46.1433 1020.66 47.0533 1020.57 47.8C1020.49 48.5373 1020.37 49.1347 1020.21 49.592C1020.05 50.0493 1019.84 50.39 1019.58 50.614ZM1028.6 52V42.06H1030.17V46.218H1031.33L1034.45 42.06H1036.25L1032.59 46.876L1036.51 52H1034.59L1031.33 47.66H1030.17V52H1028.6ZM1038.02 52V42.06H1039.59V49.788L1044.9 42.06H1046.37V52H1044.8V44.398L1039.55 52H1038.02Z" fill="white"/>
<path d="M1079.13 52V42.06H1086.12V43.432H1080.7V46.218H1083.61C1084.72 46.218 1085.54 46.4793 1086.09 47.002C1086.64 47.5153 1086.92 48.1967 1086.92 49.046C1086.92 49.6153 1086.8 50.124 1086.55 50.572C1086.32 51.0107 1085.97 51.3607 1085.49 51.622C1085.02 51.874 1084.43 52 1083.71 52H1079.13ZM1080.7 50.628H1083.5C1083.93 50.628 1084.28 50.5487 1084.54 50.39C1084.81 50.2313 1085 50.0307 1085.11 49.788C1085.23 49.536 1085.29 49.2747 1085.29 49.004C1085.29 48.7333 1085.24 48.4813 1085.14 48.248C1085.04 48.0147 1084.85 47.828 1084.58 47.688C1084.32 47.5387 1083.95 47.464 1083.47 47.464H1080.7V50.628ZM1092.52 52.07C1091.8 52.07 1091.15 51.93 1090.57 51.65C1089.99 51.37 1089.5 50.992 1089.08 50.516C1088.66 50.0307 1088.33 49.4893 1088.1 48.892C1087.87 48.2853 1087.76 47.6647 1087.76 47.03C1087.76 46.3673 1087.88 45.7373 1088.12 45.14C1088.37 44.5333 1088.7 43.9967 1089.13 43.53C1089.56 43.054 1090.06 42.6807 1090.64 42.41C1091.23 42.13 1091.87 41.99 1092.55 41.99C1093.26 41.99 1093.9 42.1347 1094.48 42.424C1095.07 42.7133 1095.57 43.1007 1095.98 43.586C1096.4 44.0713 1096.72 44.6127 1096.94 45.21C1097.18 45.8073 1097.29 46.4187 1097.29 47.044C1097.29 47.7067 1097.17 48.3413 1096.93 48.948C1096.7 49.5453 1096.36 50.082 1095.94 50.558C1095.51 51.0247 1095 51.3933 1094.41 51.664C1093.83 51.9347 1093.2 52.07 1092.52 52.07ZM1089.36 47.03C1089.36 47.4967 1089.43 47.9493 1089.58 48.388C1089.73 48.8267 1089.94 49.2187 1090.21 49.564C1090.49 49.9 1090.83 50.166 1091.22 50.362C1091.61 50.558 1092.05 50.656 1092.53 50.656C1093.04 50.656 1093.49 50.5533 1093.88 50.348C1094.27 50.1427 1094.6 49.8673 1094.86 49.522C1095.13 49.1673 1095.33 48.7753 1095.47 48.346C1095.61 47.9073 1095.68 47.4687 1095.68 47.03C1095.68 46.5633 1095.61 46.1153 1095.46 45.686C1095.32 45.2473 1095.11 44.86 1094.83 44.524C1094.55 44.1787 1094.21 43.908 1093.82 43.712C1093.44 43.516 1093.01 43.418 1092.53 43.418C1092.03 43.418 1091.58 43.5207 1091.19 43.726C1090.8 43.9313 1090.47 44.2067 1090.2 44.552C1089.92 44.8973 1089.71 45.2847 1089.57 45.714C1089.43 46.1433 1089.36 46.582 1089.36 47.03ZM1107.08 42.06V52H1105.5V47.618H1100.48V52H1098.92V42.06H1100.48V46.218H1105.5V42.06H1107.08ZM1110.33 52.056V50.74H1111.04C1111.28 50.74 1111.45 50.684 1111.58 50.572C1111.7 50.46 1111.81 50.292 1111.93 50.068L1112.22 49.424L1108.17 42.06H1109.91L1112.93 47.814L1115.5 42.06H1117.16L1113.13 50.81C1112.91 51.2673 1112.66 51.5893 1112.39 51.776C1112.13 51.9627 1111.77 52.056 1111.31 52.056H1110.33ZM1117.51 46.96C1117.51 46.3533 1117.62 45.7607 1117.83 45.182C1118.05 44.594 1118.36 44.062 1118.77 43.586C1119.19 43.1007 1119.7 42.718 1120.3 42.438C1120.89 42.1487 1121.57 42.004 1122.33 42.004C1123.22 42.004 1124 42.2093 1124.65 42.62C1125.3 43.0213 1125.79 43.5393 1126.11 44.174L1124.87 45C1124.69 44.5987 1124.45 44.2813 1124.16 44.048C1123.88 43.8147 1123.57 43.6513 1123.24 43.558C1122.91 43.4647 1122.59 43.418 1122.27 43.418C1121.75 43.418 1121.29 43.5253 1120.9 43.74C1120.51 43.9453 1120.17 44.2207 1119.9 44.566C1119.64 44.9113 1119.44 45.2987 1119.3 45.728C1119.17 46.1573 1119.11 46.5867 1119.11 47.016C1119.11 47.492 1119.18 47.954 1119.34 48.402C1119.5 48.8407 1119.72 49.2327 1120 49.578C1120.29 49.914 1120.63 50.18 1121.02 50.376C1121.42 50.572 1121.84 50.67 1122.31 50.67C1122.63 50.67 1122.96 50.614 1123.31 50.502C1123.65 50.39 1123.97 50.2173 1124.26 49.984C1124.56 49.7413 1124.79 49.424 1124.96 49.032L1126.26 49.774C1126.05 50.2687 1125.73 50.6887 1125.29 51.034C1124.86 51.3793 1124.38 51.6407 1123.84 51.818C1123.31 51.9953 1122.78 52.084 1122.26 52.084C1121.56 52.084 1120.92 51.9393 1120.34 51.65C1119.76 51.3513 1119.26 50.9593 1118.84 50.474C1118.42 49.9793 1118.09 49.4287 1117.86 48.822C1117.63 48.206 1117.51 47.5853 1117.51 46.96ZM1127.71 52V42.06H1129.28V45.728H1131.5C1132.23 45.728 1132.84 45.8587 1133.34 46.12C1133.84 46.372 1134.22 46.7313 1134.47 47.198C1134.73 47.6647 1134.86 48.2153 1134.86 48.85C1134.86 49.4473 1134.74 49.9887 1134.49 50.474C1134.23 50.95 1133.87 51.3233 1133.38 51.594C1132.89 51.8647 1132.3 52 1131.6 52H1127.71ZM1129.28 50.698H1131.38C1131.82 50.698 1132.18 50.614 1132.46 50.446C1132.74 50.278 1132.94 50.054 1133.06 49.774C1133.19 49.4847 1133.25 49.1767 1133.25 48.85C1133.25 48.5327 1133.19 48.234 1133.07 47.954C1132.96 47.674 1132.76 47.45 1132.48 47.282C1132.21 47.114 1131.84 47.03 1131.36 47.03H1129.28V50.698ZM1136.43 52V42.074H1138.01V52H1136.43Z" fill="white"/>
<path d="M1269.92 46.616V48.024H1268.14V49.96H1266.56V48.024H1264.78V46.616H1266.56V44.68H1268.14V46.616H1269.92ZM1276.36 43.256H1270.86V41.64H1279.14L1273.45 53H1271.46L1276.36 43.256ZM1283.65 47.464C1283.65 46.376 1283.88 45.304 1284.33 44.248C1284.79 43.1813 1285.33 42.0987 1285.97 41L1287.33 41.576C1287.14 41.8533 1286.93 42.216 1286.69 42.664C1286.47 43.112 1286.25 43.6133 1286.04 44.168C1285.83 44.712 1285.65 45.272 1285.51 45.848C1285.37 46.4133 1285.3 46.968 1285.3 47.512C1285.3 48.3547 1285.48 49.2507 1285.85 50.2C1286.21 51.1493 1286.69 52.1147 1287.29 53.096L1286.01 53.752C1285.56 53.08 1285.15 52.3973 1284.79 51.704C1284.44 51.0107 1284.16 50.3067 1283.96 49.592C1283.76 48.8667 1283.65 48.1573 1283.65 47.464ZM1292.21 53.128C1291.58 53.128 1291.01 53.0373 1290.49 52.856C1289.97 52.6747 1289.54 52.4133 1289.19 52.072C1288.84 51.7307 1288.58 51.336 1288.42 50.888L1289.38 49.736C1289.46 50.0133 1289.61 50.2907 1289.85 50.568C1290.09 50.8453 1290.41 51.0693 1290.79 51.24C1291.18 51.4107 1291.64 51.496 1292.17 51.496C1292.62 51.496 1293.03 51.4267 1293.38 51.288C1293.74 51.1387 1294.03 50.9307 1294.25 50.664C1294.46 50.3973 1294.57 50.0827 1294.57 49.72C1294.57 49.3147 1294.44 48.9733 1294.18 48.696C1293.93 48.4187 1293.56 48.2107 1293.08 48.072C1292.6 47.9333 1292.02 47.864 1291.35 47.864H1290.81V46.456H1291.35C1292.23 46.456 1292.94 46.312 1293.46 46.024C1293.99 45.736 1294.26 45.3093 1294.26 44.744C1294.26 44.392 1294.17 44.088 1293.97 43.832C1293.78 43.5653 1293.53 43.368 1293.22 43.24C1292.91 43.1013 1292.57 43.032 1292.2 43.032C1291.59 43.032 1291.06 43.1707 1290.61 43.448C1290.17 43.7253 1289.84 44.0667 1289.64 44.472L1288.49 43.208C1288.71 42.856 1289.02 42.552 1289.41 42.296C1289.81 42.04 1290.25 41.8427 1290.74 41.704C1291.24 41.5653 1291.75 41.496 1292.26 41.496C1293.01 41.496 1293.67 41.6293 1294.26 41.896C1294.85 42.1627 1295.31 42.5307 1295.64 43C1295.97 43.4587 1296.13 43.9813 1296.13 44.568C1296.13 44.9947 1296.04 45.3787 1295.86 45.72C1295.69 46.0613 1295.44 46.3493 1295.11 46.584C1294.79 46.808 1294.41 46.9733 1293.96 47.08C1294.44 47.1653 1294.86 47.3467 1295.22 47.624C1295.59 47.9013 1295.88 48.2427 1296.07 48.648C1296.27 49.0533 1296.37 49.496 1296.37 49.976C1296.37 50.6373 1296.18 51.2027 1295.8 51.672C1295.42 52.1413 1294.92 52.504 1294.29 52.76C1293.66 53.0053 1292.97 53.128 1292.21 53.128ZM1302.64 53V50.248H1297.57V48.68L1303.19 41.64H1304.4V48.664H1305.81V50.248H1304.4V53H1302.64ZM1299.36 48.664H1302.84V44.312L1299.36 48.664ZM1310.87 53.128C1310.24 53.128 1309.66 53.0373 1309.14 52.856C1308.63 52.6747 1308.2 52.4133 1307.85 52.072C1307.49 51.7307 1307.24 51.336 1307.08 50.888L1308.04 49.736C1308.11 50.0133 1308.27 50.2907 1308.5 50.568C1308.75 50.8453 1309.06 51.0693 1309.45 51.24C1309.84 51.4107 1310.3 51.496 1310.82 51.496C1311.28 51.496 1311.69 51.4267 1312.04 51.288C1312.4 51.1387 1312.69 50.9307 1312.9 50.664C1313.11 50.3973 1313.22 50.0827 1313.22 49.72C1313.22 49.3147 1313.09 48.9733 1312.84 48.696C1312.58 48.4187 1312.21 48.2107 1311.73 48.072C1311.25 47.9333 1310.68 47.864 1310.01 47.864H1309.46V46.456H1310.01C1310.89 46.456 1311.59 46.312 1312.12 46.024C1312.65 45.736 1312.92 45.3093 1312.92 44.744C1312.92 44.392 1312.82 44.088 1312.63 43.832C1312.44 43.5653 1312.19 43.368 1311.88 43.24C1311.57 43.1013 1311.23 43.032 1310.85 43.032C1310.25 43.032 1309.72 43.1707 1309.27 43.448C1308.82 43.7253 1308.5 44.0667 1308.29 44.472L1307.14 43.208C1307.37 42.856 1307.67 42.552 1308.07 42.296C1308.46 42.04 1308.91 41.8427 1309.4 41.704C1309.9 41.5653 1310.41 41.496 1310.92 41.496C1311.66 41.496 1312.33 41.6293 1312.92 41.896C1313.5 42.1627 1313.96 42.5307 1314.29 43C1314.62 43.4587 1314.79 43.9813 1314.79 44.568C1314.79 44.9947 1314.7 45.3787 1314.52 45.72C1314.35 46.0613 1314.1 46.3493 1313.77 46.584C1313.45 46.808 1313.06 46.9733 1312.61 47.08C1313.09 47.1653 1313.51 47.3467 1313.88 47.624C1314.25 47.9013 1314.53 48.2427 1314.73 48.648C1314.93 49.0533 1315.03 49.496 1315.03 49.976C1315.03 50.6373 1314.84 51.2027 1314.45 51.672C1314.08 52.1413 1313.58 52.504 1312.95 52.76C1312.32 53.0053 1311.63 53.128 1310.87 53.128ZM1319.91 47.464C1319.91 48.1573 1319.81 48.8667 1319.6 49.592C1319.4 50.3067 1319.12 51.0107 1318.77 51.704C1318.42 52.3973 1318.02 53.08 1317.57 53.752L1316.28 53.096C1316.87 52.1147 1317.35 51.1493 1317.72 50.2C1318.09 49.2507 1318.28 48.3547 1318.28 47.512C1318.28 46.968 1318.21 46.4133 1318.07 45.848C1317.93 45.272 1317.75 44.712 1317.52 44.168C1317.31 43.6133 1317.09 43.112 1316.85 42.664C1316.63 42.216 1316.43 41.8533 1316.24 41.576L1317.59 41C1318.24 42.0987 1318.79 43.1813 1319.24 44.248C1319.68 45.304 1319.91 46.376 1319.91 47.464ZM1325.19 53C1325.19 52.3493 1325.24 51.7787 1325.33 51.288C1325.43 50.7973 1325.58 50.3547 1325.78 49.96C1325.98 49.5653 1326.24 49.2187 1326.55 48.92C1326.86 48.6213 1327.22 48.3493 1327.62 48.104C1328.02 47.8693 1328.42 47.6507 1328.84 47.448C1329.26 47.2453 1329.66 47.032 1330.02 46.808C1330.38 46.584 1330.67 46.3227 1330.88 46.024C1331.11 45.7147 1331.22 45.3413 1331.22 44.904C1331.22 44.552 1331.15 44.2427 1331 43.976C1330.86 43.7093 1330.64 43.5013 1330.36 43.352C1330.08 43.192 1329.72 43.112 1329.28 43.112C1328.84 43.112 1328.42 43.192 1328.04 43.352C1327.66 43.5013 1327.33 43.688 1327.04 43.912C1326.77 44.136 1326.54 44.3547 1326.37 44.568L1325.25 43.4C1325.36 43.272 1325.53 43.1013 1325.76 42.888C1326.01 42.6747 1326.31 42.4613 1326.66 42.248C1327.02 42.0347 1327.44 41.8587 1327.91 41.72C1328.38 41.5707 1328.91 41.496 1329.49 41.496C1330.3 41.496 1330.98 41.6453 1331.52 41.944C1332.08 42.232 1332.5 42.632 1332.77 43.144C1333.06 43.6453 1333.2 44.2107 1333.2 44.84C1333.2 45.352 1333.11 45.8 1332.93 46.184C1332.75 46.5573 1332.51 46.8827 1332.21 47.16C1331.92 47.4267 1331.6 47.6667 1331.24 47.88C1330.88 48.0933 1330.53 48.296 1330.18 48.488C1329.57 48.7973 1329.08 49.0747 1328.71 49.32C1328.35 49.5653 1328.06 49.8 1327.84 50.024C1327.64 50.248 1327.5 50.472 1327.41 50.696C1327.33 50.92 1327.27 51.16 1327.24 51.416H1333.22V53H1325.19ZM1339.63 53.16C1338.83 53.1387 1338.13 52.952 1337.52 52.6C1336.91 52.248 1336.4 51.7893 1336 51.224C1335.59 50.648 1335.28 50.0293 1335.07 49.368C1334.87 48.696 1334.77 48.04 1334.77 47.4C1334.77 46.7173 1334.88 46.0347 1335.1 45.352C1335.33 44.6693 1335.65 44.0507 1336.08 43.496C1336.51 42.9307 1337.02 42.4827 1337.61 42.152C1338.21 41.8107 1338.88 41.64 1339.63 41.64C1340.43 41.64 1341.13 41.8213 1341.73 42.184C1342.33 42.5467 1342.84 43.016 1343.25 43.592C1343.65 44.168 1343.96 44.792 1344.16 45.464C1344.37 46.136 1344.48 46.7813 1344.48 47.4C1344.48 48.0933 1344.37 48.7813 1344.14 49.464C1343.92 50.136 1343.59 50.7493 1343.17 51.304C1342.75 51.8587 1342.24 52.3067 1341.65 52.648C1341.05 52.9787 1340.38 53.1493 1339.63 53.16ZM1336.59 47.4C1336.61 47.8907 1336.68 48.3813 1336.8 48.872C1336.93 49.352 1337.12 49.7947 1337.37 50.2C1337.63 50.6053 1337.95 50.9307 1338.32 51.176C1338.69 51.4213 1339.13 51.544 1339.63 51.544C1340.15 51.544 1340.6 51.416 1340.97 51.16C1341.36 50.8933 1341.67 50.552 1341.92 50.136C1342.16 49.7093 1342.35 49.256 1342.46 48.776C1342.59 48.296 1342.65 47.8373 1342.65 47.4C1342.65 46.9093 1342.59 46.424 1342.45 45.944C1342.32 45.4533 1342.13 45.0053 1341.87 44.6C1341.61 44.1947 1341.3 43.8693 1340.93 43.624C1340.55 43.3787 1340.12 43.256 1339.63 43.256C1339.11 43.256 1338.65 43.3893 1338.27 43.656C1337.89 43.912 1337.57 44.2533 1337.33 44.68C1337.08 45.096 1336.89 45.544 1336.77 46.024C1336.65 46.504 1336.59 46.9627 1336.59 47.4ZM1346.16 49.416V47.832H1350.95V49.416H1346.16ZM1352.63 53C1352.63 52.3493 1352.67 51.7787 1352.77 51.288C1352.87 50.7973 1353.02 50.3547 1353.22 49.96C1353.42 49.5653 1353.68 49.2187 1353.99 48.92C1354.3 48.6213 1354.65 48.3493 1355.06 48.104C1355.45 47.8693 1355.86 47.6507 1356.27 47.448C1356.7 47.2453 1357.1 47.032 1357.46 46.808C1357.82 46.584 1358.11 46.3227 1358.32 46.024C1358.55 45.7147 1358.66 45.3413 1358.66 44.904C1358.66 44.552 1358.58 44.2427 1358.43 43.976C1358.3 43.7093 1358.08 43.5013 1357.79 43.352C1357.52 43.192 1357.16 43.112 1356.72 43.112C1356.27 43.112 1355.86 43.192 1355.47 43.352C1355.1 43.5013 1354.77 43.688 1354.48 43.912C1354.2 44.136 1353.98 44.3547 1353.81 44.568L1352.69 43.4C1352.8 43.272 1352.97 43.1013 1353.2 42.888C1353.45 42.6747 1353.75 42.4613 1354.1 42.248C1354.46 42.0347 1354.88 41.8587 1355.35 41.72C1355.82 41.5707 1356.34 41.496 1356.93 41.496C1357.74 41.496 1358.42 41.6453 1358.96 41.944C1359.52 42.232 1359.93 42.632 1360.21 43.144C1360.5 43.6453 1360.64 44.2107 1360.64 44.84C1360.64 45.352 1360.55 45.8 1360.37 46.184C1360.19 46.5573 1359.95 46.8827 1359.65 47.16C1359.36 47.4267 1359.04 47.6667 1358.67 47.88C1358.32 48.0933 1357.97 48.296 1357.62 48.488C1357.01 48.7973 1356.52 49.0747 1356.15 49.32C1355.78 49.5653 1355.5 49.8 1355.28 50.024C1355.08 50.248 1354.94 50.472 1354.85 50.696C1354.76 50.92 1354.71 51.16 1354.67 51.416H1360.66V53H1352.63ZM1362.2 53C1362.2 52.3493 1362.25 51.7787 1362.35 51.288C1362.44 50.7973 1362.59 50.3547 1362.8 49.96C1363 49.5653 1363.25 49.2187 1363.56 48.92C1363.87 48.6213 1364.23 48.3493 1364.64 48.104C1365.03 47.8693 1365.44 47.6507 1365.85 47.448C1366.28 47.2453 1366.67 47.032 1367.04 46.808C1367.4 46.584 1367.69 46.3227 1367.9 46.024C1368.12 45.7147 1368.24 45.3413 1368.24 44.904C1368.24 44.552 1368.16 44.2427 1368.01 43.976C1367.87 43.7093 1367.66 43.5013 1367.37 43.352C1367.09 43.192 1366.74 43.112 1366.3 43.112C1365.85 43.112 1365.44 43.192 1365.05 43.352C1364.68 43.5013 1364.35 43.688 1364.06 43.912C1363.78 44.136 1363.56 44.3547 1363.39 44.568L1362.27 43.4C1362.37 43.272 1362.55 43.1013 1362.78 42.888C1363.03 42.6747 1363.32 42.4613 1363.68 42.248C1364.04 42.0347 1364.45 41.8587 1364.92 41.72C1365.39 41.5707 1365.92 41.496 1366.51 41.496C1367.32 41.496 1368 41.6453 1368.54 41.944C1369.09 42.232 1369.51 42.632 1369.79 43.144C1370.08 43.6453 1370.22 44.2107 1370.22 44.84C1370.22 45.352 1370.13 45.8 1369.95 46.184C1369.77 46.5573 1369.53 46.8827 1369.23 47.16C1368.94 47.4267 1368.61 47.6667 1368.25 47.88C1367.9 48.0933 1367.55 48.296 1367.2 48.488C1366.59 48.7973 1366.1 49.0747 1365.72 49.32C1365.36 49.5653 1365.07 49.8 1364.86 50.024C1364.66 50.248 1364.51 50.472 1364.43 50.696C1364.34 50.92 1364.28 51.16 1364.25 51.416H1370.24V53H1362.2ZM1372.05 49.416V47.832H1376.84V49.416H1372.05ZM1384.9 51.416V53H1378.87V51.416H1381.06V43.32C1380.98 43.448 1380.83 43.592 1380.63 43.752C1380.44 43.9013 1380.22 44.0507 1379.97 44.2C1379.73 44.3387 1379.47 44.456 1379.2 44.552C1378.95 44.648 1378.71 44.696 1378.5 44.696V43.064C1378.79 43.064 1379.08 42.9893 1379.36 42.84C1379.66 42.6907 1379.94 42.52 1380.2 42.328C1380.45 42.1253 1380.66 41.944 1380.8 41.784C1380.96 41.624 1381.05 41.5387 1381.06 41.528H1382.87V51.416H1384.9ZM1390.82 53.16C1390.02 53.1387 1389.31 52.952 1388.71 52.6C1388.1 52.248 1387.59 51.7893 1387.19 51.224C1386.78 50.648 1386.47 50.0293 1386.26 49.368C1386.06 48.696 1385.95 48.04 1385.95 47.4C1385.95 46.7173 1386.07 46.0347 1386.29 45.352C1386.51 44.6693 1386.84 44.0507 1387.27 43.496C1387.69 42.9307 1388.2 42.4827 1388.8 42.152C1389.4 41.8107 1390.07 41.64 1390.82 41.64C1391.62 41.64 1392.32 41.8213 1392.91 42.184C1393.52 42.5467 1394.03 43.016 1394.43 43.592C1394.84 44.168 1395.14 44.792 1395.35 45.464C1395.56 46.136 1395.67 46.7813 1395.67 47.4C1395.67 48.0933 1395.55 48.7813 1395.33 49.464C1395.11 50.136 1394.78 50.7493 1394.35 51.304C1393.94 51.8587 1393.43 52.3067 1392.83 52.648C1392.24 52.9787 1391.56 53.1493 1390.82 53.16ZM1387.78 47.4C1387.8 47.8907 1387.87 48.3813 1387.99 48.872C1388.11 49.352 1388.31 49.7947 1388.56 50.2C1388.82 50.6053 1389.13 50.9307 1389.51 51.176C1389.88 51.4213 1390.32 51.544 1390.82 51.544C1391.34 51.544 1391.79 51.416 1392.16 51.16C1392.55 50.8933 1392.86 50.552 1393.11 50.136C1393.35 49.7093 1393.53 49.256 1393.65 48.776C1393.78 48.296 1393.84 47.8373 1393.84 47.4C1393.84 46.9093 1393.77 46.424 1393.63 45.944C1393.51 45.4533 1393.31 45.0053 1393.06 44.6C1392.8 44.1947 1392.49 43.8693 1392.11 43.624C1391.74 43.3787 1391.31 43.256 1390.82 43.256C1390.3 43.256 1389.84 43.3893 1389.46 43.656C1389.07 43.912 1388.76 44.2533 1388.51 44.68C1388.27 45.096 1388.08 45.544 1387.95 46.024C1387.84 46.504 1387.78 46.9627 1387.78 47.4ZM1405.4 49.224C1405.4 49.9493 1405.22 50.6107 1404.86 51.208C1404.5 51.8053 1404.01 52.28 1403.38 52.632C1402.76 52.984 1402.07 53.16 1401.3 53.16C1400.47 53.16 1399.74 52.9627 1399.11 52.568C1398.49 52.1627 1398.01 51.5813 1397.66 50.824C1397.31 50.0667 1397.14 49.1653 1397.14 48.12C1397.14 46.6693 1397.32 45.4587 1397.67 44.488C1398.03 43.5173 1398.54 42.7867 1399.19 42.296C1399.84 41.8053 1400.6 41.56 1401.48 41.56C1402.2 41.56 1402.87 41.7307 1403.46 42.072C1404.07 42.4027 1404.56 42.8667 1404.94 43.464L1403.9 44.552C1403.65 44.104 1403.31 43.752 1402.87 43.496C1402.44 43.2293 1401.97 43.096 1401.45 43.096C1400.92 43.096 1400.46 43.2507 1400.06 43.56C1399.66 43.8587 1399.35 44.296 1399.13 44.872C1398.91 45.448 1398.8 46.1467 1398.79 46.968C1398.95 46.648 1399.16 46.376 1399.42 46.152C1399.68 45.9173 1399.99 45.736 1400.34 45.608C1400.7 45.48 1401.07 45.416 1401.46 45.416C1402.21 45.416 1402.88 45.5867 1403.46 45.928C1404.06 46.2693 1404.53 46.728 1404.87 47.304C1405.22 47.8693 1405.4 48.5093 1405.4 49.224ZM1401.3 51.656C1401.74 51.656 1402.14 51.5493 1402.5 51.336C1402.88 51.112 1403.17 50.8133 1403.38 50.44C1403.61 50.0667 1403.72 49.6613 1403.72 49.224C1403.72 48.7867 1403.61 48.3867 1403.38 48.024C1403.17 47.6613 1402.88 47.3733 1402.52 47.16C1402.16 46.936 1401.75 46.824 1401.3 46.824C1400.88 46.824 1400.48 46.936 1400.1 47.16C1399.73 47.3733 1399.43 47.6613 1399.21 48.024C1398.99 48.3867 1398.89 48.7867 1398.89 49.224C1398.89 49.6613 1399 50.0667 1399.22 50.44C1399.45 50.8027 1399.74 51.096 1400.1 51.32C1400.48 51.544 1400.88 51.656 1401.3 51.656Z" fill="white"/>
<g clip-path="url(#clip1_249_5720)">
<mask id="mask0_249_5720" style="mask-type:luminance" maskUnits="userSpaceOnUse" x="1234" y="38" width="20" height="20">
<path d="M1234 38H1254V58H1234V38Z" fill="white"/>
</mask>
<g mask="url(#mask0_249_5720)">
<path d="M1239.61 38.5859C1238.28 38.5859 1237 39.1149 1236.06 40.0565C1235.12 40.9981 1234.59 42.2752 1234.59 43.6068C1234.59 51.2323 1240.77 57.4141 1248.39 57.4141C1249.72 57.4141 1251 56.8851 1251.94 55.9435C1252.88 55.0019 1253.41 53.7248 1253.41 52.3932L1247.14 49.8828L1245.88 53.0208H1245.88C1242.07 53.0208 1238.98 49.9303 1238.98 46.1178V46.1172L1242.12 44.862L1239.61 38.5859Z" stroke="white" stroke-width="1.5" stroke-miterlimit="10" stroke-linecap="round" stroke-linejoin="round"/>
</g>
</g>
<path d="M690.25 52.07C689.531 52.07 688.883 51.93 688.304 51.65C687.725 51.37 687.226 50.992 686.806 50.516C686.386 50.0307 686.059 49.4893 685.826 48.892C685.602 48.2853 685.49 47.6647 685.49 47.03C685.49 46.3673 685.611 45.7373 685.854 45.14C686.097 44.5333 686.433 43.9967 686.862 43.53C687.291 43.054 687.795 42.6807 688.374 42.41C688.962 42.13 689.597 41.99 690.278 41.99C690.987 41.99 691.631 42.1347 692.21 42.424C692.798 42.7133 693.297 43.1007 693.708 43.586C694.128 44.0713 694.45 44.6127 694.674 45.21C694.907 45.8073 695.024 46.4187 695.024 47.044C695.024 47.7067 694.903 48.3413 694.66 48.948C694.427 49.5453 694.095 50.082 693.666 50.558C693.237 51.0247 692.728 51.3933 692.14 51.664C691.561 51.9347 690.931 52.07 690.25 52.07ZM687.086 47.03C687.086 47.4967 687.161 47.9493 687.31 48.388C687.459 48.8267 687.669 49.2187 687.94 49.564C688.22 49.9 688.556 50.166 688.948 50.362C689.34 50.558 689.779 50.656 690.264 50.656C690.768 50.656 691.216 50.5533 691.608 50.348C692 50.1427 692.327 49.8673 692.588 49.522C692.859 49.1673 693.064 48.7753 693.204 48.346C693.344 47.9073 693.414 47.4687 693.414 47.03C693.414 46.5633 693.339 46.1153 693.19 45.686C693.05 45.2473 692.84 44.86 692.56 44.524C692.28 44.1787 691.944 43.908 691.552 43.712C691.169 43.516 690.74 43.418 690.264 43.418C689.76 43.418 689.312 43.5207 688.92 43.726C688.528 43.9313 688.197 44.2067 687.926 44.552C687.655 44.8973 687.445 45.2847 687.296 45.714C687.156 46.1433 687.086 46.582 687.086 47.03ZM696.661 52V42.06H704.515V52H702.933V43.446H698.229V52H696.661ZM713.219 52V43.446H709.901L709.845 45.294C709.789 46.6287 709.681 47.7347 709.523 48.612C709.364 49.48 709.135 50.166 708.837 50.67C708.538 51.1647 708.165 51.5193 707.717 51.734C707.269 51.9393 706.732 52.042 706.107 52.042V50.67C706.452 50.67 706.755 50.5907 707.017 50.432C707.278 50.264 707.497 49.97 707.675 49.55C707.861 49.13 708.006 48.542 708.109 47.786C708.221 47.0207 708.295 46.0453 708.333 44.86L708.431 42.06H714.801V52H713.219ZM719.916 42.06H721.4L725.264 52H723.612L722.562 49.298H718.726L717.69 52H716.024L719.916 42.06ZM722.254 48.136L720.658 43.782L719.006 48.136H722.254ZM732.857 43.446H729.553V52H727.971V43.446H724.653V42.06H732.857V43.446ZM736.144 42.06H737.628L741.492 52H739.84L738.79 49.298H734.954L733.918 52H732.252L736.144 42.06ZM738.482 48.136L736.886 43.782L735.234 48.136H738.482Z" fill="white"/>
<rect x="365" y="24" width="280" height="48" rx="24" fill="white" fill-opacity="0.1"/>
<rect x="365.5" y="24.5" width="279" height="47" rx="23.5" stroke="white" stroke-opacity="0.4"/>
<path d="M401.36 53V41.64H410.128V53H408.688V42.92H402.8V53H401.36ZM416.268 53.16C415.639 53.16 415.068 53.048 414.556 52.824C414.044 52.5893 413.602 52.2747 413.228 51.88C412.855 51.4747 412.567 51.0107 412.364 50.488C412.162 49.9653 412.06 49.416 412.06 48.84C412.06 48.2533 412.162 47.6987 412.364 47.176C412.567 46.6533 412.855 46.1947 413.228 45.8C413.602 45.3947 414.044 45.08 414.556 44.856C415.079 44.6213 415.655 44.504 416.284 44.504C416.903 44.504 417.468 44.6213 417.98 44.856C418.492 45.08 418.935 45.3947 419.308 45.8C419.692 46.1947 419.986 46.6533 420.188 47.176C420.391 47.6987 420.492 48.2533 420.492 48.84C420.492 49.416 420.391 49.9653 420.188 50.488C419.986 51.0107 419.698 51.4747 419.324 51.88C418.951 52.2747 418.503 52.5893 417.98 52.824C417.468 53.048 416.898 53.16 416.268 53.16ZM413.5 48.856C413.5 49.432 413.623 49.9547 413.868 50.424C414.124 50.8933 414.46 51.2667 414.876 51.544C415.292 51.8107 415.756 51.944 416.268 51.944C416.78 51.944 417.244 51.8053 417.66 51.528C418.087 51.2507 418.423 50.8773 418.668 50.408C418.924 49.928 419.052 49.4 419.052 48.824C419.052 48.248 418.924 47.7253 418.668 47.256C418.423 46.7867 418.087 46.4133 417.66 46.136C417.244 45.8587 416.78 45.72 416.268 45.72C415.756 45.72 415.292 45.864 414.876 46.152C414.46 46.4293 414.124 46.8027 413.868 47.272C413.623 47.7413 413.5 48.2693 413.5 48.856ZM422.183 53V44.664H423.591V51.112L428.263 44.648H429.543V53H428.135V46.68L423.527 53H422.183ZM435.488 53.16C434.859 53.16 434.283 53.048 433.76 52.824C433.248 52.5893 432.8 52.2693 432.416 51.864C432.043 51.4587 431.75 50.9947 431.536 50.472C431.334 49.9493 431.232 49.3947 431.232 48.808C431.232 48.0187 431.408 47.2987 431.76 46.648C432.112 45.9973 432.608 45.48 433.248 45.096C433.888 44.7013 434.63 44.504 435.472 44.504C436.294 44.504 437.008 44.6907 437.616 45.064C438.235 45.4267 438.694 45.9173 438.992 46.536L437.616 46.968C437.403 46.5733 437.104 46.2693 436.72 46.056C436.336 45.832 435.91 45.72 435.44 45.72C434.928 45.72 434.459 45.8533 434.032 46.12C433.616 46.3867 433.286 46.7547 433.04 47.224C432.795 47.6827 432.672 48.2107 432.672 48.808C432.672 49.3947 432.795 49.928 433.04 50.408C433.296 50.8773 433.632 51.2507 434.048 51.528C434.475 51.8053 434.944 51.944 435.456 51.944C435.787 51.944 436.102 51.8853 436.4 51.768C436.71 51.6507 436.976 51.496 437.2 51.304C437.435 51.1013 437.595 50.8827 437.68 50.648L439.056 51.064C438.886 51.4693 438.624 51.832 438.272 52.152C437.931 52.4613 437.52 52.7067 437.04 52.888C436.571 53.0693 436.054 53.16 435.488 53.16ZM440.636 53V44.648H442.044V48.088H442.972L445.596 44.648H447.196L444.076 48.696L447.564 53H445.932L442.972 49.384H442.044V53H440.636Z" fill="white"/>
<g clip-path="url(#clip2_249_5720)">
<path d="M613.808 38C608.951 38 605 41.9512 605 46.8076C605 51.6642 608.951 55.6152 613.808 55.6152C618.664 55.6152 622.615 51.6642 622.615 46.8076C622.615 41.9512 618.664 38 613.808 38ZM613.808 53.9892C609.848 53.9892 606.626 50.7675 606.626 46.8076C606.626 42.8477 609.848 39.626 613.808 39.626C617.767 39.626 620.989 42.8477 620.989 46.8076C620.989 50.7675 617.767 53.9892 613.808 53.9892Z" fill="white"/>
<path d="M624.762 56.6121L620.101 51.9509C619.783 51.6332 619.269 51.6332 618.951 51.9509C618.633 52.2682 618.633 52.7831 618.951 53.1005L623.612 57.7617C623.771 57.9205 623.979 57.9999 624.187 57.9999C624.395 57.9999 624.603 57.9205 624.762 57.7617C625.08 57.4444 625.08 56.9295 624.762 56.6121Z" fill="white"/>
</g>
<rect x="1669" y="24" width="48" height="48" rx="24" fill="white" fill-opacity="0.1"/>
<rect x="1669.5" y="24.5" width="47" height="47" rx="23.5" stroke="white" stroke-opacity="0.4"/>
<path fill-rule="evenodd" clip-rule="evenodd" d="M1688.38 42.8858H1687.09C1686.19 42.8858 1685.45 43.5769 1685.39 44.4692L1684.55 56.1587C1684.52 56.6307 1684.68 57.0953 1685.01 57.4416C1685.33 57.7879 1685.78 57.9847 1686.25 57.9847H1699.75C1700.22 57.9847 1700.67 57.7879 1700.99 57.4416C1701.32 57.0953 1701.48 56.6307 1701.45 56.1587L1700.61 44.4692C1700.55 43.5769 1699.81 42.8858 1698.91 42.8858H1697.63V42.6422C1697.63 40.0866 1695.56 38.0151 1693 38.0151C1690.54 38.0151 1688.26 39.976 1688.37 42.6422C1688.38 42.7231 1688.38 42.8044 1688.38 42.8858ZM1697.63 44.3469V47.9999C1697.63 48.4032 1697.3 48.7305 1696.9 48.7305C1696.49 48.7305 1696.17 48.4032 1696.17 47.9999V44.3469H1689.83V47.9999C1689.83 48.4032 1689.51 48.7305 1689.1 48.7305C1688.7 48.7305 1688.37 48.4032 1688.37 47.9999C1688.37 47.9999 1688.44 46.2928 1688.42 44.3469H1687.09C1686.96 44.3469 1686.85 44.4458 1686.85 44.5729L1686.01 56.2624C1686.01 56.3301 1686.03 56.3964 1686.08 56.4461C1686.12 56.4953 1686.19 56.5235 1686.25 56.5235H1699.75C1699.81 56.5235 1699.88 56.4953 1699.93 56.4461C1699.97 56.3964 1699.99 56.3301 1699.99 56.2624L1699.15 44.5729C1699.15 44.4458 1699.04 44.3469 1698.91 44.3469H1697.63ZM1696.17 42.8858V42.6422C1696.17 40.8937 1694.75 39.4763 1693 39.4763C1691.25 39.4763 1689.83 40.8937 1689.83 42.6422V42.8858H1696.17Z" fill="white"/>
<rect x="1737" y="24" width="48" height="48" rx="24" fill="white" fill-opacity="0.1"/>
<rect x="1737.5" y="24.5" width="47" height="47" rx="23.5" stroke="white" stroke-opacity="0.4"/>
<g clip-path="url(#clip3_249_5720)">
<path d="M1750.95 57.078C1750.95 57.5793 1751.36 57.9858 1751.86 57.9858C1752.36 57.9858 1752.77 57.5793 1752.77 57.078C1752.77 53.8745 1754.61 51.0385 1757.48 49.6973C1758.48 50.3438 1759.66 50.7234 1760.94 50.7234C1762.21 50.7234 1763.4 50.3413 1764.4 49.6902C1765.26 50.0953 1766.05 50.6404 1766.71 51.3018C1768.26 52.8457 1769.11 54.8971 1769.11 57.078C1769.11 57.5793 1769.51 57.9858 1770.01 57.9858C1770.52 57.9858 1770.92 57.5793 1770.92 57.078C1770.92 54.4122 1769.88 51.9051 1768 50.0182C1767.37 49.3866 1766.63 48.845 1765.84 48.3985C1766.75 47.3011 1767.29 45.8973 1767.29 44.3688C1767.29 40.8648 1764.44 38.0142 1760.94 38.0142C1757.43 38.0142 1754.58 40.8648 1754.58 44.3688C1754.58 45.8935 1755.12 47.2939 1756.02 48.3902C1752.9 50.1448 1750.95 53.423 1750.95 57.078ZM1760.94 39.8298C1763.44 39.8298 1765.47 41.8661 1765.47 44.3688C1765.47 46.8714 1763.44 48.9078 1760.94 48.9078C1758.43 48.9078 1756.4 46.8714 1756.4 44.3688C1756.4 41.8661 1758.43 39.8298 1760.94 39.8298Z" fill="white"/>
</g>
<defs>
<filter id="filter0_d_249_5720" x="-10" y="-10" width="1940" height="115" filterUnits="userSpaceOnUse" color-interpolation-filters="sRGB">
<feFlood flood-opacity="0" result="BackgroundImageFix"/>
<feColorMatrix in="SourceAlpha" type="matrix" values="0 0 0 0 0 0 0 0 0 0 0 0 0 0 0 0 0 0 127 0" result="hardAlpha"/>
<feOffset/>
<feGaussianBlur stdDeviation="5"/>
<feComposite in2="hardAlpha" operator="out"/>
<feColorMatrix type="matrix" values="0 0 0 0 0 0 0 0 0 0 0 0 0 0 0 0 0 0 0.6 0"/>
<feBlend mode="normal" in2="BackgroundImageFix" result="effect1_dropShadow_249_5720"/>
<feBlend mode="normal" in="SourceGraphic" in2="effect1_dropShadow_249_5720" result="shape"/>
</filter>
<clipPath id="clip0_249_5720">
<rect width="200" height="27" fill="white" transform="translate(135 34)"/>
</clipPath>
<clipPath id="clip1_249_5720">
<rect width="20" height="20" fill="white" transform="translate(1234 38)"/>
</clipPath>
<clipPath id="clip2_249_5720">
<rect width="20" height="20" fill="white" transform="translate(605 38)"/>
</clipPath>
<clipPath id="clip3_249_5720">
<rect width="20" height="20" fill="white" transform="translate(1751 38)"/>
</clipPath>
</defs>
</svg>
