<svg width="20" height="20" viewBox="0 0 20 20" fill="none" xmlns="http://www.w3.org/2000/svg">
<g clip-path="url(#clip0_54_2356)">
<path d="M-0.0495605 19.078C-0.0495605 19.5793 0.356468 19.9858 0.858241 19.9858C1.36001 19.9858 1.76604 19.5793 1.76604 19.078C1.76604 15.8746 3.61024 13.0385 6.48485 11.6974C7.4797 12.3439 8.66321 12.7234 9.93537 12.7234C11.2124 12.7234 12.4004 12.3413 13.3976 11.6903C14.2557 12.0954 15.051 12.6404 15.7129 13.3019C17.2563 14.8457 18.1065 16.8972 18.1065 19.078C18.1065 19.5793 18.5125 19.9858 19.0143 19.9858C19.516 19.9858 19.9221 19.5793 19.9221 19.078C19.9221 16.4122 18.8831 13.9051 16.9965 12.0182C16.3653 11.3866 15.6316 10.845 14.8445 10.3985C15.747 9.30108 16.29 7.89727 16.29 6.36879C16.29 2.8648 13.4389 0.014183 9.93537 0.014183C6.43182 0.014183 3.58076 2.8648 3.58076 6.36879C3.58076 7.89356 4.12148 9.29394 5.02003 10.3902C1.90373 12.1448 -0.0495605 15.423 -0.0495605 19.078ZM9.93537 1.82979C12.438 1.82979 14.4744 3.86613 14.4744 6.36879C14.4744 8.87145 12.438 10.9078 9.93537 10.9078C7.43271 10.9078 5.39636 8.87145 5.39636 6.36879C5.39636 3.86613 7.43271 1.82979 9.93537 1.82979Z" fill="white"/>
</g>
<defs>
<clipPath id="clip0_54_2356">
<rect width="20" height="20" fill="white"/>
</clipPath>
</defs>
</svg>
