<svg width="20" height="20" viewBox="0 0 20 20" fill="none" xmlns="http://www.w3.org/2000/svg">
<g clip-path="url(#clip0_6_1417)">
<mask id="mask0_6_1417" style="mask-type:luminance" maskUnits="userSpaceOnUse" x="0" y="0" width="20" height="20">
<path d="M0 1.90735e-06H20V20H0V1.90735e-06Z" fill="white"/>
</mask>
<g mask="url(#mask0_6_1417)">
<path d="M5.60676 0.585939C4.27531 0.585939 2.99812 1.11492 2.05641 2.05649C1.115 2.99809 0.585938 4.27516 0.585938 5.60676C0.585938 13.2323 6.76754 19.4141 14.3932 19.4141C15.7247 19.4141 17.0019 18.8851 17.9436 17.9435C18.885 17.0019 19.4141 15.7248 19.4141 14.3932L13.138 11.8828L11.8828 15.0208H11.8821C8.0698 15.0208 4.97918 11.9303 4.97918 8.11781V8.11719L8.11719 6.86199L5.60676 0.585939Z" stroke="white" stroke-width="1.5" stroke-miterlimit="10" stroke-linecap="round" stroke-linejoin="round"/>
</g>
</g>
<defs>
<clipPath id="clip0_6_1417">
<rect width="20" height="20" fill="white"/>
</clipPath>
</defs>
</svg>
