<svg width="16" height="16" viewBox="0 0 16 16" fill="none" xmlns="http://www.w3.org/2000/svg">
<g clip-path="url(#clip0_208_1903)">
<path d="M15.1667 15.8333H10.0667C9.70008 15.8333 9.40008 15.5333 9.40008 15.1667V12C9.40008 11.2 8.76675 10.5667 7.96675 10.5667C7.16675 10.5667 6.53341 11.2 6.53341 12V15.1667C6.53341 15.5333 6.23342 15.8333 5.86675 15.8333H0.833415C0.466748 15.8333 0.166748 15.5333 0.166748 15.1667V6.63332C0.166748 6.03332 0.466748 5.46665 0.933415 5.13332L7.63341 0.299988C7.86675 0.133321 8.16675 0.133321 8.40008 0.299988L15.1001 5.13332C15.5667 5.46665 15.8667 6.03332 15.8667 6.63332V15.2C15.8334 15.5333 15.5334 15.8333 15.1667 15.8333ZM10.7334 14.5333H14.5334V6.63332C14.5334 6.46665 14.4334 6.29999 14.3001 6.19999L8.00008 1.63332L1.70008 6.16665C1.56675 6.26665 1.46675 6.43332 1.46675 6.59999V14.5H5.26675V12C5.26675 10.5 6.50008 9.26665 8.00008 9.26665C9.50008 9.26665 10.7334 10.5 10.7334 12V14.5333Z" fill="currentColor"/>
</g>
<defs>
<clipPath id="clip0_208_1903">
<rect width="16" height="16" fill="currentColor"/>
</clipPath>
</defs>
</svg>
