<svg width="60" height="20" viewBox="0 0 60 20" fill="none" xmlns="http://www.w3.org/2000/svg">
<g clip-path="url(#clip0_105_546)">
<path d="M22 18.6194L25.0476 1.47656H29.8095L26.8571 18.6194H22Z" fill="#6B88F4"/>
<path d="M22 18.6194L25.9048 1.47656H29.8095L26.8571 18.6194H22Z" fill="#3C58BF"/>
<path d="M44.0949 1.6662C43.1425 1.28525 41.6187 0.904297 39.7139 0.904297C34.952 0.904297 31.5234 3.28525 31.5234 6.71382C31.5234 9.28525 33.9044 10.6186 35.8091 11.4757C37.7139 12.3329 38.2853 12.9043 38.2853 13.6662C38.2853 14.8091 36.7615 15.3805 35.4282 15.3805C33.5234 15.3805 32.4758 15.0948 30.8568 14.4281L30.1901 14.1424L29.5234 18.0472C30.6663 18.5233 32.7615 18.9995 34.952 18.9995C39.9996 18.9995 43.333 16.6186 43.333 12.9995C43.333 10.9995 42.0949 9.47572 39.2377 8.23763C37.5234 7.38049 36.4758 6.9043 36.4758 6.04715C36.4758 5.28525 37.333 4.52334 39.2377 4.52334C40.8568 4.52334 41.9996 4.80906 42.8568 5.19001L43.333 5.38049L44.0949 1.6662Z" fill="#6B88F4"/>
<path d="M44.0949 1.6662C43.1425 1.28525 41.6187 0.904297 39.7139 0.904297C34.952 0.904297 32.3806 3.28525 32.3806 6.71382C32.3806 9.28525 33.9044 10.6186 35.8091 11.4757C37.7139 12.3329 38.2853 12.9043 38.2853 13.6662C38.2853 14.8091 36.7615 15.3805 35.4282 15.3805C33.5234 15.3805 32.4758 15.0948 30.8568 14.4281L30.1901 14.1424L29.5234 18.0472C30.6663 18.5233 32.7615 18.9995 34.952 18.9995C39.9996 18.9995 43.333 16.6186 43.333 12.9995C43.333 10.9995 42.0949 9.47572 39.2377 8.23763C37.5234 7.38049 36.4758 6.9043 36.4758 6.04715C36.4758 5.28525 37.333 4.52334 39.2377 4.52334C40.8568 4.52334 41.9996 4.80906 42.8568 5.19001L43.333 5.38049L44.0949 1.6662Z" fill="#3C58BF"/>
<path d="M52.286 1.47656C51.1432 1.47656 50.286 1.5718 49.8098 2.71466L42.667 18.6194H47.8099L48.7622 15.7623H54.8575L55.4289 18.6194H60.0003L56.0003 1.47656H52.286ZM50.0956 12.9051C50.3813 12.048 52.0003 7.85752 52.0003 7.85752C52.0003 7.85752 52.3813 6.8099 52.667 6.14323L52.9527 7.76228C52.9527 7.76228 53.9051 12.048 54.0956 13.0004H50.0956V12.9051Z" fill="#6B88F4"/>
<path d="M53.4289 1.47656C52.286 1.47656 51.4289 1.5718 50.9527 2.71466L42.667 18.6194H47.8099L48.7622 15.7623H54.8575L55.4289 18.6194H60.0003L56.0003 1.47656H53.4289ZM50.0956 12.9051C50.4765 11.9528 52.0003 7.85752 52.0003 7.85752C52.0003 7.85752 52.3813 6.8099 52.667 6.14323L52.9527 7.76228C52.9527 7.76228 53.9051 12.048 54.0956 13.0004H50.0956V12.9051Z" fill="#3C58BF"/>
<path d="M13.2386 13.4761L12.7624 10.9999C11.9052 8.14272 9.14332 4.99986 6.0957 3.47605L10.3814 18.7141H15.5243L23.2386 1.57129H18.0957L13.2386 13.4761Z" fill="#6B88F4"/>
<path d="M13.2386 13.4761L12.7624 10.9999C11.9052 8.14272 9.14332 4.99986 6.0957 3.47605L10.3814 18.7141H15.5243L23.2386 1.57129H19.0481L13.2386 13.4761Z" fill="#3C58BF"/>
<path d="M0 1.47656L0.857143 1.66704C6.95238 3.09561 11.1429 6.71466 12.7619 11.0004L11.0476 2.90513C10.7619 1.76228 9.90476 1.47656 8.85714 1.47656H0Z" fill="#FFBC00"/>
<path d="M0 1.47656C6.09524 2.90513 11.1429 6.61942 12.7619 10.9051L11.1429 4.14323C10.8571 3.00037 9.90476 2.33371 8.85714 2.33371L0 1.47656Z" fill="#F7981D"/>
<path d="M0 1.47656C6.09524 2.90513 11.1429 6.61942 12.7619 10.9051L11.619 7.19085C11.3333 6.04799 10.9524 4.90513 9.61905 4.42894L0 1.47656Z" fill="#ED7C00"/>
<path d="M18 12.9047L14.7619 9.66657L13.238 13.2856L12.8571 10.9047C12 8.04753 9.23805 4.90467 6.19043 3.38086L10.4761 18.619H15.619L18 12.9047Z" fill="#293688"/>
<path d="M26.8571 18.6192L22.7619 14.4287L22 18.6192H26.8571Z" fill="#293688"/>
<path d="M37.8092 12.7139C38.1901 13.0948 38.3806 13.3805 38.2853 13.7615C38.2853 14.9043 36.7615 15.4758 35.4282 15.4758C33.5234 15.4758 32.4758 15.1901 30.8568 14.5234L30.1901 14.2377L29.5234 18.1424C30.6663 18.6186 32.7615 19.0948 34.952 19.0948C37.9996 19.0948 40.4758 18.2377 41.9044 16.7139L37.8092 12.7139Z" fill="#293688"/>
<path d="M43.333 18.6188H47.8092L48.7616 15.7616H54.8568L55.4282 18.6188H59.9997L58.3806 11.6664L52.6663 6.14258L52.9521 7.66639C52.9521 7.66639 53.9044 11.9521 54.0949 12.9045H50.0949C50.4759 11.9521 51.9997 7.85686 51.9997 7.85686C51.9997 7.85686 52.3806 6.80924 52.6663 6.14258" fill="#293688"/>
</g>
<defs>
<clipPath id="clip0_105_546">
<rect width="60" height="20" fill="white"/>
</clipPath>
</defs>
</svg>
