<svg width="139" height="91" viewBox="0 0 139 91" fill="none" xmlns="http://www.w3.org/2000/svg">
<path d="M19.0942 90.7939C44.1699 90.7939 64.4912 70.4727 64.4912 45.397C64.4912 20.3213 44.1699 0 19.0942 0V90.7939Z" fill="url(#paint0_radial_61_5612)"/>
<path d="M0 26.7938H19.0943V20.2757L0 26.7938Z" fill="url(#paint1_linear_61_5612)"/>
<path d="M138.486 43.5109L124.185 27.8673C123.533 27.1772 122.651 26.7554 121.692 26.7554H14.1099H0V62.7586H121.692C122.651 62.7586 123.533 62.3752 124.185 61.6467L138.486 46.0031C139.138 45.313 139.138 44.2394 138.486 43.5109Z" fill="url(#paint2_linear_61_5612)"/>
<g filter="url(#filter0_d_61_5612)">
<path d="M21.072 40.06L23.536 43.728L25.986 40.06H28.086L24.642 45.1L27.974 50H25.874L23.536 46.472L21.184 50H19.07L22.402 45.1L18.958 40.06H21.072ZM29.1568 50V40.06H31.0748V47.284L35.8908 40.06H37.6828V50H35.7648V42.86L31.0048 50H29.1568ZM47.2532 41.754H44.0752V50H42.1572V41.754H38.9792V40.06H47.2532V41.754ZM51.4683 50V40.06H59.5183V50H57.6003V41.754H53.3863V50H51.4683ZM61.6122 50V40.06H65.8262C66.2835 40.06 66.7035 40.1533 67.0862 40.34C67.4688 40.5267 67.8002 40.7787 68.0802 41.096C68.3695 41.4133 68.5935 41.768 68.7522 42.16C68.9108 42.552 68.9902 42.9533 68.9902 43.364C68.9902 43.924 68.8595 44.456 68.5982 44.96C68.3368 45.464 67.9775 45.8747 67.5202 46.192C67.0628 46.5093 66.5215 46.668 65.8962 46.668H63.5442V50H61.6122ZM63.5442 44.974H65.7842C66.0175 44.974 66.2275 44.9087 66.4142 44.778C66.6008 44.6473 66.7502 44.4607 66.8622 44.218C66.9742 43.966 67.0302 43.6813 67.0302 43.364C67.0302 43.0187 66.9648 42.7247 66.8342 42.482C66.7128 42.2393 66.5495 42.0573 66.3442 41.936C66.1482 41.8147 65.9335 41.754 65.7002 41.754H63.5442V44.974ZM74.5768 50.07C73.8488 50.07 73.1862 49.93 72.5888 49.65C72.0008 49.37 71.4922 48.992 71.0628 48.516C70.6428 48.0307 70.3162 47.4893 70.0828 46.892C69.8495 46.2853 69.7328 45.6647 69.7328 45.03C69.7328 44.3673 69.8542 43.7373 70.0968 43.14C70.3488 42.5333 70.6895 41.9967 71.1188 41.53C71.5575 41.054 72.0708 40.6807 72.6588 40.41C73.2562 40.13 73.9095 39.99 74.6188 39.99C75.3375 39.99 75.9908 40.1347 76.5788 40.424C77.1762 40.7133 77.6848 41.1007 78.1048 41.586C78.5248 42.0713 78.8515 42.6127 79.0848 43.21C79.3182 43.8073 79.4348 44.4233 79.4348 45.058C79.4348 45.7113 79.3135 46.3413 79.0708 46.948C78.8282 47.5453 78.4875 48.082 78.0488 48.558C77.6195 49.0247 77.1062 49.3933 76.5088 49.664C75.9208 49.9347 75.2768 50.07 74.5768 50.07ZM71.6928 45.03C71.6928 45.4593 71.7582 45.8747 71.8888 46.276C72.0195 46.6773 72.2062 47.0367 72.4488 47.354C72.7008 47.662 73.0042 47.9093 73.3588 48.096C73.7228 48.2733 74.1335 48.362 74.5908 48.362C75.0575 48.362 75.4728 48.2687 75.8368 48.082C76.2008 47.886 76.5042 47.6293 76.7468 47.312C76.9895 46.9853 77.1715 46.626 77.2928 46.234C77.4235 45.8327 77.4888 45.4313 77.4888 45.03C77.4888 44.6007 77.4188 44.19 77.2788 43.798C77.1482 43.3967 76.9568 43.042 76.7048 42.734C76.4622 42.4167 76.1588 42.1693 75.7948 41.992C75.4402 41.8053 75.0388 41.712 74.5908 41.712C74.1148 41.712 73.6948 41.81 73.3308 42.006C72.9762 42.1927 72.6775 42.4447 72.4348 42.762C72.1922 43.0793 72.0055 43.434 71.8748 43.826C71.7535 44.218 71.6928 44.6193 71.6928 45.03ZM80.3009 51.904V48.306H80.8329C81.0849 48.306 81.3042 48.208 81.4909 48.012C81.6775 47.816 81.8362 47.5033 81.9669 47.074C82.0975 46.6447 82.2002 46.0893 82.2749 45.408C82.3589 44.7173 82.4149 43.882 82.4429 42.902L82.5269 40.06H89.1489V48.306H90.4649V51.904H88.7709V50H81.9949V51.904H80.3009ZM83.1429 48.306H87.2309V41.754H84.2769L84.2489 43.154C84.2209 44.1247 84.1649 44.9507 84.0809 45.632C84.0062 46.3133 83.8942 46.8733 83.7449 47.312C83.6049 47.7507 83.4042 48.082 83.1429 48.306ZM94.6657 40.06H96.6257L100.28 50H98.2917L97.3677 47.522H93.8957L92.9857 50H90.9977L94.6657 40.06ZM97.0177 46.164L95.6457 42.062L94.2177 46.164H97.0177ZM100.614 50L104.45 44.848L100.894 40.06H103.134L106.032 44.064H106.872V40.06H108.79V44.064H109.63L112.528 40.06H114.768L111.212 44.848L115.048 50H112.836L109.658 45.814H108.79V50H106.872V45.814H105.99L102.826 50H100.614Z" fill="white"/>
</g>
<path d="M2.26221 60.4964V29.056H121.654C121.961 29.056 122.229 29.171 122.459 29.4011L136.492 44.7762L122.459 60.1514C122.267 60.3814 121.961 60.4964 121.654 60.4964H2.26221Z" stroke="white" stroke-width="0.5" stroke-miterlimit="10"/>
<defs>
<filter id="filter0_d_61_5612" x="17.958" y="39.99" width="98.0898" height="13.914" filterUnits="userSpaceOnUse" color-interpolation-filters="sRGB">
<feFlood flood-opacity="0" result="BackgroundImageFix"/>
<feColorMatrix in="SourceAlpha" type="matrix" values="0 0 0 0 0 0 0 0 0 0 0 0 0 0 0 0 0 0 127 0" result="hardAlpha"/>
<feOffset dy="1"/>
<feGaussianBlur stdDeviation="0.5"/>
<feComposite in2="hardAlpha" operator="out"/>
<feColorMatrix type="matrix" values="0 0 0 0 0 0 0 0 0 0 0 0 0 0 0 0 0 0 0.4 0"/>
<feBlend mode="normal" in2="BackgroundImageFix" result="effect1_dropShadow_61_5612"/>
<feBlend mode="normal" in="SourceGraphic" in2="effect1_dropShadow_61_5612" result="shape"/>
</filter>
<radialGradient id="paint0_radial_61_5612" cx="0" cy="0" r="1" gradientUnits="userSpaceOnUse" gradientTransform="translate(19.0842 46.7722) rotate(-90) scale(52.4999)">
<stop offset="0.00157077"/>
<stop offset="0.8178" stop-color="#272727" stop-opacity="0"/>
</radialGradient>
<linearGradient id="paint1_linear_61_5612" x1="-0.980137" y1="25.7286" x2="28.0702" y2="22.545" gradientUnits="userSpaceOnUse">
<stop stop-color="#550025"/>
<stop offset="0.9984" stop-color="#F700A5"/>
</linearGradient>
<linearGradient id="paint2_linear_61_5612" x1="131.5" y1="26.9999" x2="-4.49999" y2="68.5001" gradientUnits="userSpaceOnUse">
<stop stop-color="#F4BC1D"/>
<stop offset="0.9984" stop-color="#FF00D4"/>
</linearGradient>
</defs>
</svg>
