<svg width="97" height="64" viewBox="0 0 97 64" fill="none" xmlns="http://www.w3.org/2000/svg">
<path d="M13.293 63.2061C30.7494 63.2061 44.896 49.0594 44.896 31.603C44.896 14.1466 30.7494 0 13.293 0V63.2061Z" fill="url(#paint0_radial_581_5029)"/>
<path d="M0 18.6525H13.2925V14.1149L0 18.6525Z" fill="url(#paint1_linear_581_5029)"/>
<path d="M96.4069 30.29L86.4509 19.3998C85.9972 18.9193 85.3833 18.6257 84.716 18.6257H9.82257H0V43.6893H84.716C85.3833 43.6893 85.9972 43.4224 86.4509 42.9152L96.4069 32.025C96.8607 31.5445 96.8607 30.7972 96.4069 30.29Z" fill="url(#paint2_linear_581_5029)"/>
<g filter="url(#filter0_d_581_5029)">
<path d="M12.7066 27.6573L14.4666 30.2773L16.2166 27.6573H17.7166L15.2566 31.2573L17.6366 34.7573H16.1366L14.4666 32.2373L12.7866 34.7573H11.2766L13.6566 31.2573L11.1966 27.6573H12.7066ZM18.4814 34.7573V27.6573H19.8514V32.8173L23.2914 27.6573H24.5714V34.7573H23.2014V29.6573L19.8014 34.7573H18.4814ZM31.4074 28.8673H29.1374V34.7573H27.7674V28.8673H25.4974V27.6573H31.4074V28.8673ZM34.4182 34.7573V27.6573H40.1682V34.7573H38.7982V28.8673H35.7882V34.7573H34.4182ZM41.6638 34.7573V27.6573H44.6738C45.0005 27.6573 45.3005 27.724 45.5738 27.8573C45.8472 27.9907 46.0838 28.1707 46.2838 28.3973C46.4905 28.624 46.6505 28.8773 46.7638 29.1573C46.8772 29.4373 46.9338 29.724 46.9338 30.0173C46.9338 30.4173 46.8405 30.7973 46.6538 31.1573C46.4672 31.5173 46.2105 31.8107 45.8838 32.0373C45.5572 32.264 45.1705 32.3773 44.7238 32.3773H43.0438V34.7573H41.6638ZM43.0438 31.1673H44.6438C44.8105 31.1673 44.9605 31.1207 45.0938 31.0273C45.2272 30.934 45.3338 30.8007 45.4138 30.6273C45.4938 30.4473 45.5338 30.244 45.5338 30.0173C45.5338 29.7707 45.4872 29.5607 45.3938 29.3873C45.3072 29.214 45.1905 29.084 45.0438 28.9973C44.9038 28.9107 44.7505 28.8673 44.5838 28.8673H43.0438V31.1673ZM50.9243 34.8073C50.4043 34.8073 49.931 34.7073 49.5043 34.5073C49.0843 34.3073 48.721 34.0373 48.4143 33.6973C48.1143 33.3507 47.881 32.964 47.7143 32.5373C47.5476 32.104 47.4643 31.6607 47.4643 31.2073C47.4643 30.734 47.551 30.284 47.7243 29.8573C47.9043 29.424 48.1476 29.0407 48.4543 28.7073C48.7676 28.3673 49.1343 28.1007 49.5543 27.9073C49.981 27.7073 50.4476 27.6073 50.9543 27.6073C51.4676 27.6073 51.9343 27.7107 52.3543 27.9173C52.781 28.124 53.1443 28.4007 53.4443 28.7473C53.7443 29.094 53.9776 29.4807 54.1443 29.9073C54.311 30.334 54.3943 30.774 54.3943 31.2273C54.3943 31.694 54.3076 32.144 54.1343 32.5773C53.961 33.004 53.7176 33.3873 53.4043 33.7273C53.0976 34.0607 52.731 34.324 52.3043 34.5173C51.8843 34.7107 51.4243 34.8073 50.9243 34.8073ZM48.8643 31.2073C48.8643 31.514 48.911 31.8107 49.0043 32.0973C49.0976 32.384 49.231 32.6407 49.4043 32.8673C49.5843 33.0873 49.801 33.264 50.0543 33.3973C50.3143 33.524 50.6076 33.5873 50.9343 33.5873C51.2676 33.5873 51.5643 33.5207 51.8243 33.3873C52.0843 33.2473 52.301 33.064 52.4743 32.8373C52.6476 32.604 52.7776 32.3473 52.8643 32.0673C52.9576 31.7807 53.0043 31.494 53.0043 31.2073C53.0043 30.9007 52.9543 30.6073 52.8543 30.3273C52.761 30.0407 52.6243 29.7873 52.4443 29.5673C52.271 29.3407 52.0543 29.164 51.7943 29.0373C51.541 28.904 51.2543 28.8373 50.9343 28.8373C50.5943 28.8373 50.2943 28.9073 50.0343 29.0473C49.781 29.1807 49.5676 29.3607 49.3943 29.5873C49.221 29.814 49.0876 30.0673 48.9943 30.3473C48.9076 30.6273 48.8643 30.914 48.8643 31.2073ZM55.0129 36.1173V33.5473H55.3929C55.5729 33.5473 55.7296 33.4773 55.8629 33.3373C55.9962 33.1973 56.1096 32.974 56.2029 32.6673C56.2962 32.3607 56.3696 31.964 56.4229 31.4773C56.4829 30.984 56.5229 30.3873 56.5429 29.6873L56.6029 27.6573H61.3329V33.5473H62.2729V36.1173H61.0629V34.7573H56.2229V36.1173H55.0129ZM57.0429 33.5473H59.9629V28.8673H57.8529L57.8329 29.8673C57.8129 30.5607 57.7729 31.1507 57.7129 31.6373C57.6596 32.124 57.5796 32.524 57.4729 32.8373C57.3729 33.1507 57.2296 33.3873 57.0429 33.5473ZM65.2735 27.6573H66.6735L69.2835 34.7573H67.8635L67.2035 32.9873H64.7235L64.0735 34.7573H62.6535L65.2735 27.6573ZM66.9535 32.0173L65.9735 29.0873L64.9535 32.0173H66.9535ZM69.5223 34.7573L72.2623 31.0773L69.7223 27.6573H71.3223L73.3923 30.5173H73.9923V27.6573H75.3623V30.5173H75.9623L78.0323 27.6573H79.6323L77.0923 31.0773L79.8323 34.7573H78.2523L75.9823 31.7673H75.3623V34.7573H73.9923V31.7673H73.3623L71.1023 34.7573H69.5223Z" fill="white"/>
</g>
<path d="M1.57422 42.1145V20.2273H84.6887C84.9022 20.2273 85.0891 20.3074 85.2492 20.4675L95.0184 31.1709L85.2492 41.8743C85.1157 42.0345 84.9022 42.1145 84.6887 42.1145H1.57422Z" stroke="white" stroke-width="0.5" stroke-miterlimit="10"/>
<defs>
<filter id="filter0_d_581_5029" x="10.1965" y="27.6073" width="70.6357" height="10.51" filterUnits="userSpaceOnUse" color-interpolation-filters="sRGB">
<feFlood flood-opacity="0" result="BackgroundImageFix"/>
<feColorMatrix in="SourceAlpha" type="matrix" values="0 0 0 0 0 0 0 0 0 0 0 0 0 0 0 0 0 0 127 0" result="hardAlpha"/>
<feOffset dy="1"/>
<feGaussianBlur stdDeviation="0.5"/>
<feComposite in2="hardAlpha" operator="out"/>
<feColorMatrix type="matrix" values="0 0 0 0 0 0 0 0 0 0 0 0 0 0 0 0 0 0 0.4 0"/>
<feBlend mode="normal" in2="BackgroundImageFix" result="effect1_dropShadow_581_5029"/>
<feBlend mode="normal" in="SourceGraphic" in2="effect1_dropShadow_581_5029" result="shape"/>
</filter>
<radialGradient id="paint0_radial_581_5029" cx="0" cy="0" r="1" gradientUnits="userSpaceOnUse" gradientTransform="translate(13.286 32.5604) rotate(-90) scale(36.5478)">
<stop offset="0.00157077"/>
<stop offset="0.8178" stop-color="#272727" stop-opacity="0"/>
</radialGradient>
<linearGradient id="paint1_linear_581_5029" x1="-0.682321" y1="17.9109" x2="19.5411" y2="15.6947" gradientUnits="userSpaceOnUse">
<stop stop-color="#550025"/>
<stop offset="0.9984" stop-color="#F700A5"/>
</linearGradient>
<linearGradient id="paint2_linear_581_5029" x1="91.5436" y1="18.7959" x2="-3.13266" y2="47.6862" gradientUnits="userSpaceOnUse">
<stop stop-color="#F4BC1D"/>
<stop offset="0.9984" stop-color="#FF00D4"/>
</linearGradient>
</defs>
</svg>
