<svg width="30" height="30" viewBox="0 0 30 30" fill="none" xmlns="http://www.w3.org/2000/svg">
<g clip-path="url(#clip0_8_3827)">
<path d="M28.9439 17.3662C29.8389 9.83241 28.5139 5.07616 26.1239 2.92491L26.1251 2.92366C22.2676 -0.750091 9.2401 -1.29384 4.6251 3.08866C2.5526 5.23241 1.8226 8.37866 1.7426 12.2737C1.6626 16.1699 1.5676 23.4687 8.36885 25.4487H8.3751L8.36885 28.4724C8.36885 28.4724 8.3226 29.6974 9.1051 29.9437C10.0001 30.2337 10.4051 29.6649 13.1888 26.3399C17.8438 26.7437 21.4188 25.8187 21.8251 25.6837C22.7651 25.3687 28.0839 24.6649 28.9439 17.3662ZM13.6476 24.2124C13.6476 24.2124 10.7013 27.8862 9.7851 28.8399C9.4851 29.1499 9.15635 29.1212 9.16135 28.5062C9.16135 28.1024 9.18385 23.4862 9.18385 23.4862C3.4176 21.8337 3.7576 15.6187 3.8201 12.3674C3.8826 9.11491 4.4776 6.45116 6.2326 4.65741C10.2813 0.861159 21.7026 1.70991 24.6126 4.44491C28.1701 7.59866 26.9038 16.5087 26.9113 16.8124C26.1801 22.9049 21.8701 23.2912 21.0776 23.5549C20.7388 23.6674 17.5951 24.4762 13.6476 24.2124Z" fill="white"/>
<path d="M15.2779 5.37109C14.7967 5.37109 14.7967 6.12109 15.2779 6.12734C19.0117 6.15609 22.0867 8.75859 22.1204 13.5323C22.1204 14.0361 22.8579 14.0298 22.8517 13.5261C22.8117 8.38234 19.4529 5.39984 15.2779 5.37109Z" fill="white"/>
<path d="M20.1892 12.7413C20.1779 13.2388 20.9142 13.2625 20.9204 12.7588C20.9817 9.92254 19.2329 7.5863 15.9467 7.34005C15.4654 7.30505 15.4154 8.0613 15.8954 8.0963C18.7454 8.31255 20.2467 10.2575 20.1892 12.7413Z" fill="white"/>
<path d="M19.4008 15.9671C18.7833 15.6096 18.1545 15.8321 17.8945 16.1834L17.3508 16.8871C17.0745 17.2446 16.5583 17.1971 16.5583 17.1971C12.7908 16.2009 11.7833 12.2584 11.7833 12.2584C11.7833 12.2584 11.737 11.7246 12.082 11.4384L12.762 10.8759C13.102 10.6059 13.317 9.95589 12.9708 9.31714C12.0458 7.64589 11.4245 7.06964 11.1083 6.62714C10.7758 6.21089 10.2758 6.11714 9.75578 6.39839H9.74453C8.66328 7.03089 7.47953 8.21464 7.85828 9.43339C8.50453 10.7184 9.69203 14.8146 13.477 17.9096C15.2558 19.3734 18.0708 20.8734 19.2658 21.2196L19.277 21.2371C20.4545 21.6296 21.5995 20.3996 22.2108 19.2859V19.2771C22.482 18.7384 22.392 18.2284 21.9958 17.8946C21.2933 17.2096 20.2333 16.4534 19.4008 15.9671Z" fill="white"/>
<path d="M16.4617 10.1301C17.6629 10.2001 18.2454 10.8276 18.3079 12.1163C18.3304 12.6201 19.0617 12.5851 19.0392 12.0813C18.9592 10.3988 18.0817 9.46135 16.5017 9.37385C16.0204 9.3451 15.9754 10.1013 16.4617 10.1301Z" fill="white"/>
</g>
<defs>
<clipPath id="clip0_8_3827">
<rect width="30" height="30" fill="white"/>
</clipPath>
</defs>
</svg>
