<svg width="22" height="22" viewBox="0 0 22 22" fill="none" xmlns="http://www.w3.org/2000/svg">
<path d="M19.3219 4.40001H16.1729L15.8063 3.30001C15.6295 2.7659 15.2888 2.30116 14.8326 1.97199C14.3763 1.64281 13.8279 1.46598 13.2653 1.46668H8.73473C8.1723 1.46625 7.62404 1.64319 7.16798 1.97234C6.71191 2.30149 6.37125 2.76608 6.19447 3.30001L5.82707 4.40001H2.67813C1.96809 4.40079 1.28734 4.6832 0.785265 5.18527C0.283185 5.68735 0.000776432 6.3681 0 7.07814V17.8581C0.00155218 18.5677 0.284304 19.2477 0.786299 19.7491C1.28829 20.2506 1.96859 20.5326 2.67813 20.5333H19.3248C20.0343 20.5318 20.7143 20.249 21.2158 19.747C21.7172 19.245 21.9992 18.5647 22 17.8552V7.07521C21.9984 6.36567 21.7157 5.68568 21.2137 5.18424C20.7117 4.68279 20.0314 4.40078 19.3219 4.40001ZM20.5333 17.8552C20.5329 18.1764 20.4052 18.4843 20.1781 18.7114C19.951 18.9385 19.643 19.0663 19.3219 19.0667H2.67813C2.35695 19.0663 2.04904 18.9385 1.82193 18.7114C1.59482 18.4843 1.46705 18.1764 1.46667 17.8552V7.07521C1.46783 6.75454 1.59593 6.44737 1.82296 6.2209C2.04999 5.99442 2.35746 5.86706 2.67813 5.86668H6.3558C6.50965 5.86656 6.65956 5.81806 6.78433 5.72804C6.90909 5.63802 7.00238 5.51104 7.051 5.36508L7.5856 3.76128C7.66588 3.52005 7.8201 3.31023 8.02637 3.16161C8.23265 3.01299 8.4805 2.93313 8.73473 2.93334H13.2653C13.5196 2.93307 13.7676 3.013 13.9739 3.16177C14.1802 3.31054 14.3343 3.52058 14.4144 3.76201L14.949 5.36508C14.9976 5.51104 15.0909 5.63802 15.2157 5.72804C15.3404 5.81806 15.4904 5.86656 15.6442 5.86668H19.3219C19.643 5.86706 19.951 5.99483 20.1781 6.22194C20.4052 6.44905 20.5329 6.75696 20.5333 7.07814V17.8552Z" fill="#A5A6A6"/>
<path d="M11 6.60001C9.9122 6.60001 8.84884 6.92258 7.94437 7.52692C7.0399 8.13127 6.33495 8.99025 5.91867 9.99525C5.50238 11.0002 5.39346 12.1061 5.60568 13.173C5.8179 14.2399 6.34173 15.2199 7.11092 15.9891C7.8801 16.7583 8.86011 17.2821 9.92701 17.4943C10.9939 17.7065 12.0998 17.5976 13.1048 17.1813C14.1098 16.7651 14.9687 16.0601 15.5731 15.1556C16.1774 14.2512 16.5 13.1878 16.5 12.1C16.4984 10.6418 15.9185 9.24375 14.8874 8.21263C13.8563 7.18152 12.4582 6.60156 11 6.60001ZM11 16.1333C10.2023 16.1333 9.42248 15.8968 8.7592 15.4536C8.09592 15.0104 7.57896 14.3805 7.27369 13.6435C6.96842 12.9065 6.88854 12.0955 7.04417 11.3131C7.1998 10.5308 7.58393 9.81208 8.148 9.24801C8.71208 8.68394 9.43075 8.2998 10.2131 8.14417C10.9955 7.98855 11.8065 8.06842 12.5435 8.37369C13.2805 8.67897 13.9104 9.19593 14.3536 9.85921C14.7968 10.5225 15.0333 11.3023 15.0333 12.1C15.0322 13.1694 14.6069 14.1946 13.8507 14.9507C13.0946 15.7069 12.0694 16.1322 11 16.1333Z" fill="#A5A6A6"/>
<path d="M18.3329 8.80001C18.738 8.80001 19.0663 8.47169 19.0663 8.06668C19.0663 7.66167 18.738 7.33334 18.3329 7.33334C17.9279 7.33334 17.5996 7.66167 17.5996 8.06668C17.5996 8.47169 17.9279 8.80001 18.3329 8.80001Z" fill="#A5A6A6"/>
</svg>
