<svg width="22" height="22" viewBox="0 0 22 22" fill="none" xmlns="http://www.w3.org/2000/svg">
<g id="camera 1">
<path id="Vector" d="M19.3219 4.39989H16.1729L15.8063 3.29989C15.6295 2.76578 15.2888 2.30104 14.8326 1.97187C14.3763 1.64269 13.8279 1.46586 13.2653 1.46655H8.73473C8.1723 1.46613 7.62404 1.64307 7.16798 1.97222C6.71191 2.30137 6.37125 2.76596 6.19447 3.29989L5.82707 4.39989H2.67813C1.96809 4.40066 1.28734 4.68307 0.785265 5.18515C0.283185 5.68723 0.000776432 6.36797 0 7.07802V17.858C0.00155218 18.5676 0.284304 19.2475 0.786299 19.749C1.28829 20.2504 1.96859 20.5324 2.67813 20.5332H19.3248C20.0343 20.5317 20.7143 20.2489 21.2158 19.7469C21.7172 19.2449 21.9992 18.5646 22 17.8551V7.07509C21.9984 6.36555 21.7157 5.68556 21.2137 5.18411C20.7117 4.68267 20.0314 4.40066 19.3219 4.39989ZM20.5333 17.8551C20.5329 18.1763 20.4052 18.4842 20.1781 18.7113C19.951 18.9384 19.643 19.0662 19.3219 19.0666H2.67813C2.35695 19.0662 2.04904 18.9384 1.82193 18.7113C1.59482 18.4842 1.46705 18.1763 1.46667 17.8551V7.07509C1.46783 6.75441 1.59593 6.44725 1.82296 6.22077C2.04999 5.9943 2.35746 5.86694 2.67813 5.86655H6.3558C6.50965 5.86644 6.65956 5.81794 6.78433 5.72792C6.90909 5.6379 7.00238 5.51092 7.051 5.36495L7.5856 3.76115C7.66588 3.51992 7.8201 3.31011 8.02637 3.16149C8.23265 3.01287 8.4805 2.933 8.73473 2.93322H13.2653C13.5196 2.93294 13.7676 3.01288 13.9739 3.16165C14.1802 3.31042 14.3343 3.52046 14.4144 3.76189L14.949 5.36495C14.9976 5.51092 15.0909 5.6379 15.2157 5.72792C15.3404 5.81794 15.4904 5.86644 15.6442 5.86655H19.3219C19.643 5.86694 19.951 5.9947 20.1781 6.22181C20.4052 6.44892 20.5329 6.75684 20.5333 7.07802V17.8551Z" fill="#A5A6A6"/>
<path id="Vector_2" d="M11 6.6001C9.9122 6.6001 8.84884 6.92267 7.94437 7.52701C7.0399 8.13136 6.33495 8.99035 5.91867 9.99534C5.50238 11.0003 5.39346 12.1062 5.60568 13.1731C5.8179 14.24 6.34173 15.22 7.11092 15.9892C7.8801 16.7584 8.86011 17.2822 9.92701 17.4944C10.9939 17.7066 12.0998 17.5977 13.1048 17.1814C14.1098 16.7652 14.9687 16.0602 15.5731 15.1557C16.1774 14.2513 16.5 13.1879 16.5 12.1001C16.4984 10.6419 15.9185 9.24384 14.8874 8.21273C13.8563 7.18161 12.4582 6.60165 11 6.6001ZM11 16.1334C10.2023 16.1334 9.42248 15.8969 8.7592 15.4537C8.09592 15.0105 7.57896 14.3806 7.27369 13.6436C6.96842 12.9066 6.88854 12.0956 7.04417 11.3132C7.1998 10.5308 7.58393 9.81217 8.148 9.2481C8.71208 8.68403 9.43075 8.29989 10.2131 8.14426C10.9955 7.98864 11.8065 8.06851 12.5435 8.37378C13.2805 8.67906 13.9104 9.19602 14.3536 9.8593C14.7968 10.5226 15.0333 11.3024 15.0333 12.1001C15.0322 13.1694 14.6069 14.1947 13.8507 14.9508C13.0946 15.707 12.0694 16.1323 11 16.1334Z" fill="#A5A6A6"/>
<path id="Vector_3" d="M18.3329 8.79992C18.738 8.79992 19.0663 8.47159 19.0663 8.06659C19.0663 7.66158 18.738 7.33325 18.3329 7.33325C17.9279 7.33325 17.5996 7.66158 17.5996 8.06659C17.5996 8.47159 17.9279 8.79992 18.3329 8.79992Z" fill="#A5A6A6"/>
</g>
</svg>
