<svg width="22" height="22" viewBox="0 0 22 22" fill="none" xmlns="http://www.w3.org/2000/svg">
<g id="fertilizer (1) 1">
<g id="g900">
<g id="g902">
<g id="Clip path group">
<mask id="mask0_291_2302" style="mask-type:luminance" maskUnits="userSpaceOnUse" x="0" y="0" width="22" height="22">
<g id="clipPath908">
<path id="path906" d="M0 1.90735e-06H22V22H0V1.90735e-06Z" fill="white"/>
</g>
</mask>
<g mask="url(#mask0_291_2302)">
<g id="g904">
<g id="g910">
<path id="path912" d="M18.2862 19.8473L17.9601 18.6305C18.6907 13.5435 18.6907 8.45647 17.9601 3.36949L18.2862 2.15265L18.5086 1.32263C18.6158 0.922416 18.2495 0.556193 17.8494 0.663443L17.0194 0.885849L15.7964 1.21353C12.5988 0.456291 9.40112 0.456291 6.20347 1.21353L4.98054 0.885849L4.15047 0.663443C3.7503 0.556193 3.38408 0.922416 3.49133 1.32263L3.71369 2.15265L4.03974 3.36949C3.30918 8.45647 3.30918 13.5435 4.03974 18.6305L3.71369 19.8473L3.49133 20.6773C3.38408 21.0776 3.7503 21.4438 4.15047 21.3366L4.98054 21.1141L6.20347 20.7864C9.40112 21.5437 12.5988 21.5437 15.7964 20.7864L17.0194 21.1141L17.8494 21.3366C18.2495 21.4438 18.6158 21.0776 18.5086 20.6773L18.2862 19.8473Z" stroke="#A5A6A6" stroke-width="1.2" stroke-miterlimit="10" stroke-linecap="round" stroke-linejoin="round"/>
</g>
<g id="g914">
<path id="path916" d="M11 14.5322V11.0994" stroke="#A5A6A6" stroke-width="1.2" stroke-miterlimit="10" stroke-linecap="round" stroke-linejoin="round"/>
</g>
<g id="g918">
<path id="path920" d="M11 11.0994H12.5874C13.9478 11.0994 15.0507 9.99653 15.0507 8.6361V7.46765H13.4633C12.1028 7.46765 11 8.57048 11 9.93096V11.0994Z" stroke="#A5A6A6" stroke-width="1.2" stroke-miterlimit="10" stroke-linecap="round" stroke-linejoin="round"/>
</g>
<g id="g922">
<path id="path924" d="M10.9996 11.0994H9.41229C8.05181 11.0994 6.94897 9.99653 6.94897 8.6361V7.46765H8.53637C9.8968 7.46765 10.9996 8.57048 10.9996 9.93096V11.0994Z" stroke="#A5A6A6" stroke-width="1.2" stroke-miterlimit="10" stroke-linecap="round" stroke-linejoin="round"/>
</g>
</g>
</g>
</g>
</g>
</g>
</g>
</svg>
