<svg width="22" height="22" viewBox="0 0 22 22" fill="none" xmlns="http://www.w3.org/2000/svg">
<g id="placard 1">
<g id="Group">
<g id="Group_2">
<path id="Vector" d="M21.1884 3.56932C21.1497 3.49874 21.0844 3.44645 21.0071 3.42396C18.4655 2.68561 15.8375 2.22907 13.1961 2.06705C10.5634 1.90559 7.9082 2.03605 5.30419 2.45488C5.13858 2.48153 5.02593 2.63735 5.05254 2.80301C5.07918 2.96862 5.23497 3.08127 5.4007 3.05467C7.96053 2.64295 10.5707 2.5146 13.1589 2.67343C15.6545 2.82646 18.1381 3.24704 20.5455 3.92388L18.8017 9.92554C13.6907 8.4982 8.30917 8.49816 3.19818 9.92558L1.45456 3.92392C2.33628 3.67606 3.23545 3.46063 4.13191 3.28263C4.29645 3.24996 4.40334 3.0901 4.3707 2.92556C4.33807 2.76103 4.17813 2.65413 4.01363 2.68677C3.00077 2.88789 1.98448 3.13591 0.992991 3.424C0.83189 3.47082 0.739257 3.63935 0.786073 3.80045L2.5 10.5C2.53855 10.6328 2.65986 10.7191 2.79152 10.7191C2.8196 10.7191 2.84809 10.7152 2.87641 10.707C3.03755 10.6602 3.13018 10.4917 3.08336 10.3306L3.36775 10.5101C8.36785 9.1148 13.6318 9.1148 18.6319 10.51L18.7169 10.3405C18.6702 10.5016 18.7628 10.6701 18.9239 10.7169C18.9522 10.7251 18.9807 10.729 19.0088 10.729C19.1404 10.729 19.2617 10.6428 19.3003 10.51V10.3868L19.3009 10.3853L21.214 3.80053C21.2365 3.72307 21.2272 3.63991 21.1884 3.56932Z" fill="#A5A6A6" stroke="#A5A6A6" stroke-width="0.8"/>
</g>
</g>
<g id="Group_3">
<g id="Group_4">
<path id="Vector_2" d="M11.3139 9.07711C11.1463 9.08062 11.0131 9.21946 11.0166 9.3872L11.1707 20.6707C11.1743 20.8384 11.3131 20.9715 11.4808 20.968C11.5103 20.9673 11.5387 20.9625 11.5655 20.9541C11.6911 20.9147 11.781 20.7961 11.7781 20.6579L11.624 9.37437C11.6204 9.20662 11.4816 9.07358 11.3139 9.07711Z" fill="#A5A6A6" stroke="#A5A6A6" stroke-width="0.8"/>
</g>
</g>
<g id="Group_5">
<g id="Group_6">
<path id="Vector_3" d="M10.4551 5.13681C10.4489 4.86698 10.3316 4.61412 10.1248 4.42482C9.89312 4.21279 9.57052 4.10358 9.23993 4.12527C8.91381 4.1464 8.61166 4.29444 8.4109 4.53136C8.23198 4.74247 8.1481 5.00419 8.17442 5.26639C8.2152 5.699 8.25639 6.13165 8.29809 6.56602C8.35385 7.1126 8.8217 7.51836 9.37926 7.51836C9.40402 7.51836 9.42903 7.51756 9.45423 7.51593C9.45435 7.51593 9.45447 7.51593 9.45455 7.51593C10.0515 7.47658 10.5078 6.99048 10.4932 6.40752C10.4802 5.9833 10.4675 5.55912 10.4551 5.13681ZM9.41453 6.90975C9.15696 6.92645 8.92687 6.7445 8.90255 6.50618C8.86108 6.07393 8.81994 5.64164 8.77899 5.20751C8.76917 5.10893 8.803 5.00831 8.87438 4.92406C8.96914 4.81221 9.11669 4.74203 9.27939 4.73144C9.29405 4.73053 9.30863 4.73001 9.32313 4.73001C9.47337 4.73001 9.61418 4.78098 9.71456 4.87289C9.79813 4.94935 9.84538 5.04805 9.84782 5.15267C9.86024 5.57721 9.87302 6.00171 9.88601 6.42442C9.89216 6.67451 9.68073 6.89222 9.41453 6.90975Z" fill="#A5A6A6"/>
</g>
</g>
<g id="Group_7">
<g id="Group_8">
<path id="Vector_4" d="M6.789 7.5336C6.74011 7.2781 6.69137 7.02253 6.64276 6.76696C6.6114 6.60219 6.45254 6.49393 6.28752 6.52533C6.12279 6.55669 6.01462 6.71567 6.04589 6.88053C6.07577 7.03755 6.10569 7.19458 6.13569 7.3516C5.81932 7.41659 5.50259 7.48834 5.18906 7.56591C4.98182 6.76692 4.77343 5.95826 4.56855 5.15787C4.52693 4.99542 4.36155 4.89739 4.19893 4.93901C4.03639 4.9806 3.93841 5.14609 3.98003 5.30859C4.2102 6.20748 4.44468 7.11676 4.677 8.01118C4.69725 8.08924 4.7477 8.15603 4.81725 8.19677C4.86427 8.22433 4.91739 8.23851 4.971 8.23851C4.99668 8.23851 5.02249 8.23524 5.04773 8.22869C5.54178 8.0997 6.04657 7.98542 6.54801 7.88895C6.71266 7.85727 6.82056 7.69825 6.789 7.5336Z" fill="#A5A6A6"/>
</g>
</g>
<g id="Group_9">
<g id="Group_10">
<path id="Vector_5" d="M18.4704 5.13038C17.9128 4.96868 17.3425 4.82324 16.7752 4.69809C16.6119 4.66214 16.4502 4.76488 16.4134 4.92809C16.3131 5.37465 16.2123 5.82451 16.1119 6.27454V6.27458C16.0094 6.73463 15.9071 7.195 15.806 7.65222C15.7886 7.73091 15.8032 7.81332 15.8466 7.88123C15.8899 7.94913 15.9585 7.99707 16.0372 8.01445C16.5323 8.12342 17.0304 8.25032 17.5176 8.39145C17.5459 8.39964 17.5743 8.40352 17.6023 8.40352C17.734 8.40352 17.8554 8.31707 17.8939 8.18421C17.9406 8.02307 17.8478 7.85462 17.6867 7.80793C17.284 7.69125 16.8741 7.58411 16.4644 7.4884C16.5222 7.22756 16.5804 6.96588 16.6387 6.70415C16.8034 6.74254 16.968 6.78209 17.1307 6.82355C17.1559 6.82998 17.1811 6.83302 17.2059 6.83302C17.3415 6.83302 17.465 6.74158 17.5 6.60421C17.5415 6.44163 17.4433 6.2763 17.2807 6.23487C17.1121 6.19189 16.9416 6.15099 16.7709 6.11124C16.8271 5.85978 16.8834 5.60853 16.9395 5.35815C17.3961 5.46452 17.8529 5.5838 18.3012 5.71386C18.4623 5.76048 18.6309 5.66789 18.6776 5.50675C18.7243 5.3456 18.6315 5.17707 18.4704 5.13038Z" fill="#A5A6A6"/>
</g>
</g>
<g id="Group_11">
<g id="Group_12">
<path id="Vector_6" d="M12.9498 5.34067C12.844 4.9963 12.7323 4.64906 12.6176 4.30868C12.564 4.1497 12.3916 4.06418 12.2327 4.11782C12.0738 4.17135 11.9883 4.34363 12.0419 4.50262C12.1548 4.83788 12.2649 5.17989 12.369 5.51907C12.4092 5.64977 12.5294 5.7337 12.6593 5.7337C12.6888 5.7337 12.7189 5.72934 12.7486 5.7202C12.9089 5.67094 12.999 5.50102 12.9498 5.34067Z" fill="#A5A6A6"/>
</g>
</g>
<g id="Group_13">
<g id="Group_14">
<path id="Vector_7" d="M14.691 4.34605C14.5451 4.26328 14.3597 4.31425 14.2768 4.46013C13.9181 5.09159 13.5761 5.73739 13.2557 6.38803C13.2381 6.32455 13.2204 6.2612 13.2026 6.19804C13.1569 6.03662 12.9892 5.94267 12.8276 5.98833C12.6662 6.03399 12.5724 6.2018 12.618 6.36322C12.7092 6.68598 12.7973 7.01377 12.8798 7.33733C12.9115 7.46184 13.0181 7.55288 13.146 7.56474C13.1555 7.56562 13.1648 7.56602 13.1742 7.56602C13.2915 7.56602 13.3995 7.49815 13.4496 7.39026C13.8617 6.50311 14.3177 5.61827 14.8051 4.76016C14.8879 4.61432 14.8368 4.4289 14.691 4.34605Z" fill="#A5A6A6"/>
</g>
</g>
</g>
</svg>
