<svg width="18" height="18" viewBox="0 0 18 18" fill="none" xmlns="http://www.w3.org/2000/svg">
<g clip-path="url(#clip0_8_3340)">
<path d="M12.3701 4.75896C12.0209 4.40588 11.452 4.40142 11.0973 4.74904L4.44483 11.324L1.55292 8.33011C1.208 7.97062 0.636985 7.95882 0.277533 8.30374C-0.0819573 8.64866 -0.0937567 9.21968 0.25116 9.57913C0.252723 9.58073 0.254247 9.58233 0.25581 9.58393L3.78187 13.2381C3.95062 13.4102 4.18125 13.5077 4.42232 13.5087H4.43224C4.66874 13.5079 4.89551 13.4143 5.06367 13.248L12.362 6.03173C12.7146 5.68205 12.7182 5.11314 12.3701 4.75896Z" fill="#F9CC49"/>
<path d="M9.19407 13.2381C9.36239 13.4098 9.59228 13.5072 9.83272 13.5087H9.84265C10.0791 13.508 10.3059 13.4144 10.4741 13.2481L17.7724 6.03179C18.1032 5.65929 18.0694 5.08917 17.697 4.75836C17.3593 4.45845 16.8519 4.4545 16.5096 4.7491L9.85976 11.324L9.62252 11.0777C9.27764 10.7183 8.70662 10.7064 8.34713 11.0513C7.98764 11.3962 7.9758 11.9672 8.32072 12.3267C8.32228 12.3284 8.32385 12.33 8.32541 12.3316L9.19407 13.2381Z" fill="#F9CC49"/>
</g>
<defs>
<clipPath id="clip0_8_3340">
<rect width="18" height="18" fill="white"/>
</clipPath>
</defs>
</svg>
